<svg id="svg" version="1.1" xmlns="http://www.w3.org/2000/svg" style="display: block;" viewBox="0 0 225 225"><path d="M0 0 C74.25 0 148.5 0 225 0 C225 74.25 225 148.5 225 225 C150.75 225 76.5 225 0 225 C0 150.75 0 76.5 0 0 Z " transform="translate(0,0)" style="fill: #000000;"/><path d="M0 0 C3.80716414 3.42767189 6.49168146 7.03538966 9.1875 11.375 C9.96508805 12.61004162 10.74377546 13.84439161 11.5234375 15.078125 C11.92530273 15.71685547 12.32716797 16.35558594 12.74121094 17.01367188 C14.89326562 20.40954405 17.09649374 23.77062022 19.3125 27.125 C19.92484497 28.06545166 19.92484497 28.06545166 20.54956055 29.02490234 C24.31913771 35.00874147 24.31913771 35.00874147 30.05859375 38.7578125 C31.23615234 38.93957031 31.23615234 38.93957031 32.4375 39.125 C33.38882813 39.27324219 34.34015625 39.42148438 35.3203125 39.57421875 C38.2741299 39.91600866 41.21769571 40.20371002 44.1796875 40.45703125 C45.10467041 40.53743652 46.02965332 40.6178418 46.98266602 40.70068359 C48.84146401 40.85623825 50.70139461 40.99890105 52.56225586 41.12744141 C58.67398421 41.61827531 63.73035772 42.36428638 67.9375 47.25 C69.3425163 50.88651277 69.21132724 53.3866659 68 57 C64.59593439 64.47142342 59.96878407 71.3726467 55.51586914 78.25366211 C47.26944081 91.152336 47.67354717 102.68194163 49.32495117 117.55078125 C50.09163702 124.86704785 50.64462964 132.26220537 47.625 139.125 C43.18809321 142.29421914 39.2646184 141.84838221 34 141 C29.91099243 139.91399668 25.89692361 138.61407135 21.90209961 137.22338867 C13.99109334 134.48726969 7.7913587 132.99459205 -0.1015625 136.50390625 C-9.2669441 141.23482425 -17.9668592 146.8641097 -26.53515625 152.58984375 C-31.15895695 155.23515604 -35.67238976 156.68012046 -41 156 C-43.75 154.6875 -43.75 154.6875 -46 152 C-48.53450537 143.68283045 -48.17781189 135.03025959 -48 126.4375 C-47.2370842 110.17208826 -47.2370842 110.17208826 -54 96 C-56.60465498 93.74175537 -59.27194764 91.58384758 -61.97265625 89.44140625 C-78.03533569 76.48763251 -78.03533569 76.48763251 -79.8125 70.0625 C-80.02397609 66.60839048 -79.72835041 64.98533253 -78 62 C-74.58479719 58.92752001 -71.42249526 57.1426223 -67.125 55.5625 C-65.98933594 55.14226562 -64.85367188 54.72203125 -63.68359375 54.2890625 C-60.51137922 53.17895561 -57.33145947 52.11248018 -54.13598633 51.07250977 C-42.96911271 47.43323671 -35.00911588 44.5264498 -29.20874023 33.63720703 C-27.23744368 29.62346841 -25.36360873 25.564603 -23.5 21.5 C-15.56209607 4.1871233 -15.56209607 4.1871233 -10 -1 C-6.08224302 -2.38025001 -3.7891197 -1.70123742 0 0 Z " transform="translate(118,35)" style="fill: #E423BD;"/><path d="M0 0 C2.62187494 1.04874998 3.79371361 1.64931313 5.25 4.125 C5.62125 5.053125 5.62125 5.053125 6 6 C6.66 6 7.32 6 8 6 C8.25394531 6.7734375 8.50789063 7.546875 8.76953125 8.34375 C9.11371094 9.3853125 9.45789063 10.426875 9.8125 11.5 C10.35583984 13.14935547 10.35583984 13.14935547 10.91015625 14.83203125 C11.77298067 17.34009794 12.71619195 19.74890015 13.75 22.1875 C15.40060133 26.42553045 15.28048091 30.5123054 15 35 C14.01 35 13.02 35 12 35 C9.06302907 37.22881804 8.00580074 39.96243645 6.625 43.3125 C4.5891572 47.95003919 2.58101031 51.41898969 -1 55 C-1.66 55 -2.32 55 -3 55 C-3.33 61.6 -3.66 68.2 -4 75 C-6 73 -6 73 -6.875 69.9375 C-7.66495875 66.94639751 -7.66495875 66.94639751 -9.75 66 C-13.71506308 66 -17.12483401 67.64197755 -20.75 69.125 C-25.19456509 70.32161368 -29.42571646 70.16272155 -34 70 C-34 70.66 -34 71.32 -34 72 C-32.72125 71.95875 -31.4425 71.9175 -30.125 71.875 C-27.9453125 71.8046875 -27.9453125 71.8046875 -26 72 C-24 74 -24 74 -24 78 C-25.60332791 78.08121924 -27.20784026 78.13929134 -28.8125 78.1875 C-30.15248047 78.23970703 -30.15248047 78.23970703 -31.51953125 78.29296875 C-34.53503413 77.93680699 -34.93986991 77.10217356 -37 75 C-39.72486722 74.20837507 -39.72486722 74.20837507 -42.6875 73.8125 C-43.68136719 73.65394531 -44.67523438 73.49539062 -45.69921875 73.33203125 C-46.45847656 73.22246094 -47.21773437 73.11289063 -48 73 C-48 72.34 -48 71.68 -48 71 C-48.73605469 70.80664062 -49.47210938 70.61328125 -50.23046875 70.4140625 C-51.20628906 70.15367188 -52.18210937 69.89328125 -53.1875 69.625 C-54.63189453 69.24214844 -54.63189453 69.24214844 -56.10546875 68.8515625 C-58.83998303 68.04707652 -61.42086869 67.21561207 -64 66 C-64.6875 63.9375 -64.6875 63.9375 -65 62 C-65.66 61.67 -66.32 61.34 -67 61 C-66.67 60.01 -66.34 59.02 -66 58 C-58.88465545 55.35925357 -50.85780719 54.63626446 -43.375 53.5 C-34.05390134 52.07041731 -25.40590519 50.21971077 -16.6875 46.5 C-15.74261719 46.0978125 -14.79773438 45.695625 -13.82421875 45.28125 C-6.02782048 38.98374435 -4.23964337 29.99522915 -3.09960938 20.46679688 C-2.96136564 19.12378759 -2.82400473 17.78068715 -2.6875 16.4375 C-2.38569863 13.74788923 -2.07291214 11.05964441 -1.76171875 8.37109375 C-1.63756592 7.19474365 -1.51341309 6.01839355 -1.38549805 4.80639648 C-1 2 -1 2 0 0 Z " transform="translate(112,42)" style="fill: #FD70C3;"/><path d="M0 0 C3.80716414 3.42767189 6.49168146 7.03538966 9.1875 11.375 C9.96373468 12.60877139 10.74112243 13.84181791 11.51953125 15.07421875 C11.92123535 15.71278809 12.32293945 16.35135742 12.73681641 17.00927734 C14.90736433 20.4299669 17.13653147 23.81100217 19.375 27.1875 C19.79160889 27.82284668 20.20821777 28.45819336 20.63745117 29.11279297 C22.22251756 31.5002407 23.72791386 33.73563683 25.7890625 35.73828125 C27 37 27 37 27 40 C27.598125 40.0825 28.19625 40.165 28.8125 40.25 C31.5966296 41.20455872 32.43311142 42.57132271 34 45 C28.46346649 45.79093336 23.72195861 46 18 46 C18 40.39 18 34.78 18 29 C15.69 29.33 13.38 29.66 11 30 C11.04125 31.27875 11.0825 32.5575 11.125 33.875 C11.1953125 36.0546875 11.1953125 36.0546875 11 38 C10.01 38.99 10.01 38.99 9 40 C8.82984375 39.09378906 8.6596875 38.18757813 8.484375 37.25390625 C7.18735129 30.7342924 5.84435604 24.78651313 2.76953125 18.8671875 C2 17 2 17 2 13 C1.34 13 0.68 13 0 13 C-1.35386936 11.34997172 -2.68678142 9.6825613 -4 8 C-4.99 7.505 -4.99 7.505 -6 7 C-6.08975098 7.91177002 -6.17950195 8.82354004 -6.27197266 9.76293945 C-6.62201402 13.20036308 -6.99367181 16.63409325 -7.37939453 20.06762695 C-7.54087793 21.54361094 -7.69411798 23.02052432 -7.83837891 24.49829102 C-8.80543802 34.33228182 -10.13543153 44.22108644 -17.5378418 51.51538086 C-20.46045779 53.64240883 -23.44055382 54.58124163 -27 55 C-27 54.34 -27 53.68 -27 53 C-24.03 52.505 -24.03 52.505 -21 52 C-21.33 50.35 -21.66 48.7 -22 47 C-20.35 46.34 -18.7 45.68 -17 45 C-16.814375 43.14375 -16.814375 43.14375 -16.625 41.25 C-16.3910571 38.91057095 -16.13310319 37.25123895 -15.02734375 35.1640625 C-13.90561743 32.80118653 -13.5129825 30.81933044 -13.1484375 28.234375 C-12.95507812 26.90019531 -12.95507812 26.90019531 -12.7578125 25.5390625 C-12.56832031 24.15847656 -12.56832031 24.15847656 -12.375 22.75 C-12.2409375 21.81414063 -12.106875 20.87828125 -11.96875 19.9140625 C-11.63962401 17.61018055 -11.31693851 15.30558476 -11 13 C-11.99 13.33 -12.98 13.66 -14 14 C-14.99 18.95 -15.98 23.9 -17 29 C-17.66 29 -18.32 29 -19 29 C-19.13792969 29.56332031 -19.27585938 30.12664062 -19.41796875 30.70703125 C-20.01215963 33.04790405 -20.62726355 35.37147737 -21.3125 37.6875 C-21.53550781 38.47511719 -21.75851563 39.26273438 -21.98828125 40.07421875 C-23 42 -23 42 -25.10546875 42.76953125 C-25.73066406 42.84558594 -26.35585937 42.92164063 -27 43 C-27 43.66 -27 44.32 -27 45 C-27.804375 45.2475 -28.60875 45.495 -29.4375 45.75 C-32.15651455 46.70404019 -34.64714661 47.73084861 -37.25 48.9375 C-43.57306808 51.78658763 -49.97202457 53.69455822 -56.8125 54.8125 C-63.70163701 56.0939452 -71.98744482 58.98744482 -77 64 C-77.24287489 66.44012949 -77.24287489 66.44012949 -77.125 69.125 C-77.10695312 70.03507812 -77.08890625 70.94515625 -77.0703125 71.8828125 C-77.04710937 72.58148438 -77.02390625 73.28015625 -77 74 C-77.66 73.67 -78.32 73.34 -79 73 C-79.86635899 69.82335036 -80.14102078 67.59228728 -79.375 64.375 C-76.57656155 59.54133359 -72.21964211 57.43572083 -67.125 55.5625 C-65.98933594 55.14226562 -64.85367188 54.72203125 -63.68359375 54.2890625 C-60.51137922 53.17895561 -57.33145947 52.11248018 -54.13598633 51.07250977 C-42.96911271 47.43323671 -35.00911588 44.5264498 -29.20874023 33.63720703 C-27.23744368 29.62346841 -25.36360873 25.564603 -23.5 21.5 C-15.56209607 4.1871233 -15.56209607 4.1871233 -10 -1 C-6.08224302 -2.38025001 -3.7891197 -1.70123742 0 0 Z " transform="translate(118,35)" style="fill: #E939AB;"/><path d="M0 0 C2.46800047 1.15173355 4.04783565 2.04783565 6 4 C8.34563933 14.31196158 8.34615928 27.96152217 5 38 C4.34 38 3.68 38 3 38 C2.7215625 39.2375 2.7215625 39.2375 2.4375 40.5 C-0.11092794 46.70486803 -4.81868429 52.17425567 -11 55 C-11.66 55 -12.32 55 -13 55 C-13 55.66 -13 56.32 -13 57 C-18.75209979 58.96679667 -23.88265267 59.30450725 -29.9375 59.25 C-30.79279297 59.25773437 -31.64808594 59.26546875 -32.52929688 59.2734375 C-38.01503981 59.25669992 -42.73306267 58.53797011 -48 57 C-48 56.34 -48 55.68 -48 55 C-47.30551758 54.84966309 -46.61103516 54.69932617 -45.89550781 54.54443359 C-25.73829848 51.40015444 -25.73829848 51.40015444 -9.29882812 40.81738281 C-4.80747507 32.94093615 -3.59439376 25.36120552 -2.6875 16.4375 C-2.38569863 13.74788923 -2.07291214 11.05964441 -1.76171875 8.37109375 C-1.63756592 7.19474365 -1.51341309 6.01839355 -1.38549805 4.80639648 C-1 2 -1 2 0 0 Z " transform="translate(112,42)" style="fill: #FCF6FA;"/><path d="M0 0 C0.71220703 -0.01224609 1.42441406 -0.02449219 2.15820312 -0.03710938 C6.2892489 -0.04857389 9.47517002 0.34227508 13.1875 2.1875 C13.1875 3.1775 13.1875 4.1675 13.1875 5.1875 C15.8275 5.1875 18.4675 5.1875 21.1875 5.1875 C21.1875 6.1775 21.1875 7.1675 21.1875 8.1875 C22.5075 8.1875 23.8275 8.1875 25.1875 8.1875 C25.290625 8.826875 25.39375 9.46625 25.5 10.125 C25.726875 10.805625 25.95375 11.48625 26.1875 12.1875 C27.1775 12.5175 28.1675 12.8475 29.1875 13.1875 C29.5175 12.5275 29.8475 11.8675 30.1875 11.1875 C30.6825 13.1675 30.6825 13.1675 31.1875 15.1875 C31.5175 14.5275 31.8475 13.8675 32.1875 13.1875 C31.8575 14.8375 31.5275 16.4875 31.1875 18.1875 C26.39672365 18.47523432 23.18132444 17.62919975 18.8125 15.6875 C17.75289063 15.2234375 16.69328125 14.759375 15.6015625 14.28125 C14.80492187 13.9203125 14.00828125 13.559375 13.1875 13.1875 C13.1875 12.5275 13.1875 11.8675 13.1875 11.1875 C5.13557789 9.99462265 -2.78843875 9.49822395 -10.8125 11.1875 C-10.8125 11.8475 -10.8125 12.5075 -10.8125 13.1875 C-11.76511719 13.65800781 -12.71773437 14.12851563 -13.69921875 14.61328125 C-14.96619961 15.24207916 -16.23312369 15.87099148 -17.5 16.5 C-18.43875977 16.9630957 -18.43875977 16.9630957 -19.39648438 17.43554688 C-24.74840634 20.06414965 -24.74840634 20.06414965 -29.8125 23.1875 C-30.1425 24.1775 -30.4725 25.1675 -30.8125 26.1875 C-35.28526797 29.36115992 -39.87904208 31.72588091 -45.4375 31 C-46.55125 30.731875 -47.665 30.46375 -48.8125 30.1875 C-47.75374926 26.78437262 -46.80347846 24.17396769 -44.8125 21.1875 C-41.09609861 20.91721626 -38.355299 21.006567 -34.8125 22.1875 C-34.73 21.40375 -34.6475 20.62 -34.5625 19.8125 C-33.8125 17.1875 -33.8125 17.1875 -31.9375 15.875 C-29.8125 15.1875 -29.8125 15.1875 -26.8125 15.1875 C-26.544375 14.589375 -26.27625 13.99125 -26 13.375 C-24.79542363 11.15604353 -23.69299437 9.85101425 -21.8125 8.1875 C-20.94625 7.3521875 -20.94625 7.3521875 -20.0625 6.5 C-16.93547189 4.67590027 -14.3626019 4.98268643 -10.8125 5.1875 C-10.626875 4.2284375 -10.626875 4.2284375 -10.4375 3.25 C-10.23125 2.569375 -10.025 1.88875 -9.8125 1.1875 C-6.6995419 -0.36897905 -3.41338167 0.00303952 0 0 Z " transform="translate(130.8125,154.8125)" style="fill: #930390;"/><path d="M0 0 C-0.25144511 3.18933522 -0.52968366 6.3758057 -0.8125 9.5625 C-0.88275391 10.45775391 -0.95300781 11.35300781 -1.02539062 12.27539062 C-1.53227636 17.81058286 -2.60072534 21.99450516 -5 27 C-5.185625 28.3921875 -5.185625 28.3921875 -5.375 29.8125 C-5.58125 30.534375 -5.7875 31.25625 -6 32 C-8.5625 33.3125 -8.5625 33.3125 -11 34 C-10.505 36.475 -10.505 36.475 -10 39 C-10.94875 39.0825 -11.8975 39.165 -12.875 39.25 C-13.90625 39.4975 -14.9375 39.745 -16 40 C-16.30873047 40.64630371 -16.61746094 41.29260742 -16.93554688 41.95849609 C-18 44 -18 44 -19.86914062 44.88134766 C-21.00125977 45.1450415 -21.00125977 45.1450415 -22.15625 45.4140625 C-23.00574219 45.61684814 -23.85523438 45.81963379 -24.73046875 46.02856445 C-25.64441406 46.22538818 -26.55835938 46.42221191 -27.5 46.625 C-28.43457031 46.83664795 -29.36914062 47.0482959 -30.33203125 47.26635742 C-40.66925988 49.5158237 -51.39100198 51.22792769 -62 51 C-62 49.68 -62 48.36 -62 47 C-53.77119972 43.13571537 -46.24435738 40.41948414 -37.27734375 38.71484375 C-31.39406054 37.43160081 -26.008416 35.338944 -21 32 C-18.3125 31.875 -18.3125 31.875 -16 32 C-16 31.34 -16 30.68 -16 30 C-15.01 29.67 -14.02 29.34 -13 29 C-12.04643935 27.03696127 -12.04643935 27.03696127 -11.4375 24.6875 C-10.53460417 21.60133064 -9.51484461 18.84114634 -8 16 C-7.34 16 -6.68 16 -6 16 C-5.86722656 14.92878906 -5.73445313 13.85757813 -5.59765625 12.75390625 C-5.4194944 11.35674231 -5.24109681 9.95960841 -5.0625 8.5625 C-4.97548828 7.85544922 -4.88847656 7.14839844 -4.79882812 6.41992188 C-3.96946023 0 -3.96946023 0 0 0 Z " transform="translate(107,48)" style="fill: #CF21A5;"/><path d="M0 0 C0.66 0 1.32 0 2 0 C2.25394531 0.7734375 2.50789063 1.546875 2.76953125 2.34375 C3.11371094 3.3853125 3.45789063 4.426875 3.8125 5.5 C4.35583984 7.14935547 4.35583984 7.14935547 4.91015625 8.83203125 C5.77298067 11.34009794 6.71619195 13.74890015 7.75 16.1875 C9.40060133 20.42553045 9.28048091 24.5123054 9 29 C8.01 29 7.02 29 6 29 C3.06302907 31.22881804 2.00580074 33.96243645 0.625 37.3125 C-1.4108428 41.95003919 -3.41898969 45.41898969 -7 49 C-7.66 49 -8.32 49 -9 49 C-9 49.66 -9 50.32 -9 51 C-10.98 51.495 -10.98 51.495 -13 52 C-13 52.66 -13 53.32 -13 54 C-18.44629917 55.78149973 -23.47630434 56.42854224 -29.1875 56.6875 C-29.98091797 56.73455078 -30.77433594 56.78160156 -31.59179688 56.83007812 C-35.31810077 57.02092996 -38.38578814 57.04224019 -42 56 C-42 55.34 -42 54.68 -42 54 C-42.556875 54.02320313 -43.11375 54.04640625 -43.6875 54.0703125 C-49.17609015 54.20011024 -53.7293351 53.53328434 -59 52 C-58.67 51.34 -58.34 50.68 -58 50 C-52 51 -52 51 -49.41015625 51.52734375 C-44.94331093 52.14645977 -40.5659799 52.14497109 -36.0625 52.125 C-34.76022461 52.13080078 -34.76022461 52.13080078 -33.43164062 52.13671875 C-28.51395393 52.12928461 -23.84784944 51.8310599 -19 51 C-19 50.34 -19 49.68 -19 49 C-17.4609375 47.95703125 -17.4609375 47.95703125 -15.375 46.8125 C-9.49010983 43.27530538 -5.02771946 38.69147422 -3 32 C-2.34 32 -1.68 32 -1 32 C0.05728087 25.14016191 0.11639843 18.43216776 0.0625 11.5 C0.05798828 10.39140625 0.05347656 9.2828125 0.04882812 8.140625 C0.03713158 5.42702601 0.02074086 2.71354239 0 0 Z " transform="translate(118,48)" style="fill: #FC96D5;"/><path d="M0 0 C-2.49505962 2.49505962 -3.67328888 2.35948376 -7.125 2.625 C-8.03507812 2.69976562 -8.94515625 2.77453125 -9.8828125 2.8515625 C-10.93082031 2.92503906 -10.93082031 2.92503906 -12 3 C-12.64730804 5.56213554 -13.29289288 8.12468485 -13.9375 10.6875 C-14.11990234 11.40873047 -14.30230469 12.12996094 -14.49023438 12.87304688 C-15.2320896 15.8269795 -15.95369098 18.7651233 -16.54296875 21.75390625 C-17.16235198 24.79788366 -18.16582995 27.64775193 -19.18359375 30.578125 C-19.73745808 32.22116752 -20.24936346 33.87883772 -20.72265625 35.546875 C-20.95855469 36.35640625 -21.19445312 37.1659375 -21.4375 38 C-21.64246094 38.7425 -21.84742188 39.485 -22.05859375 40.25 C-23 42 -23 42 -25.09765625 42.75 C-25.72542969 42.8325 -26.35320312 42.915 -27 43 C-27 43.66 -27 44.32 -27 45 C-27.804375 45.2475 -28.60875 45.495 -29.4375 45.75 C-32.15651455 46.70404019 -34.64714661 47.73084861 -37.25 48.9375 C-43.57306808 51.78658763 -49.97202457 53.69455822 -56.8125 54.8125 C-63.70163701 56.0939452 -71.98744482 58.98744482 -77 64 C-77.24287489 66.44012949 -77.24287489 66.44012949 -77.125 69.125 C-77.10695312 70.03507812 -77.08890625 70.94515625 -77.0703125 71.8828125 C-77.04710937 72.58148438 -77.02390625 73.28015625 -77 74 C-77.66 73.67 -78.32 73.34 -79 73 C-79.86635899 69.82335036 -80.14102078 67.59228728 -79.375 64.375 C-76.57656155 59.54133359 -72.21964211 57.43572083 -67.125 55.5625 C-65.98933594 55.14226562 -64.85367188 54.72203125 -63.68359375 54.2890625 C-60.51137922 53.17895561 -57.33145947 52.11248018 -54.13598633 51.07250977 C-42.96911271 47.43323671 -35.00911588 44.5264498 -29.20874023 33.63720703 C-27.23744368 29.62346841 -25.36360873 25.564603 -23.5 21.5 C-15.56209607 4.1871233 -15.56209607 4.1871233 -10 -1 C-6.13987464 -2.41168113 -3.78229939 -1.46134295 0 0 Z " transform="translate(118,35)" style="fill: #EF71D5;"/><path d="M0 0 C3.01199472 1.35539762 3.70236313 2.83432751 4.921875 5.84765625 C6.55135798 12.26649799 6.68201385 18.7916141 6.6875 25.375 C6.69974609 26.16390625 6.71199219 26.9528125 6.72460938 27.765625 C6.7425032 34.82772256 6.7425032 34.82772256 4.5 38.125 C1.625 38.25 1.625 38.25 -1.5 38.125 C-7.03460153 32.59039847 -5.73580018 20.42379666 -5.8125 13.0625 C-5.83006348 12.13397217 -5.84762695 11.20544434 -5.86572266 10.2487793 C-5.86491699 9.37133057 -5.86411133 8.49388184 -5.86328125 7.58984375 C-5.86626221 6.802146 -5.86924316 6.01444824 -5.87231445 5.20288086 C-5.23051597 1.62101402 -3.58724313 0.17936216 0 0 Z " transform="translate(113.5,95.875)" style="fill: #572250;"/><path d="M0 0 C2.6875 -0.3125 2.6875 -0.3125 6 0 C8.75 2.4375 8.75 2.4375 11 5 C11.66 5.33 12.32 5.66 13 6 C13.12375 6.86625 13.12375 6.86625 13.25 7.75 C13.89698328 10.35111982 13.89698328 10.35111982 16.9375 12.4375 C21.65495856 16.38476124 22.12452826 20.11600509 23 26 C23.13833375 27.94325195 23.24313991 29.88914619 23.31640625 31.8359375 C23.35830078 32.89941406 23.40019531 33.96289062 23.44335938 35.05859375 C23.48267578 36.15300781 23.52199219 37.24742187 23.5625 38.375 C23.60568359 39.49261719 23.64886719 40.61023438 23.69335938 41.76171875 C23.79897411 44.50770199 23.9010797 47.25376881 24 50 C25.32 50.33 26.64 50.66 28 51 C28.66 56.61 29.32 62.22 30 68 C37.21404938 67.59921948 41.67266488 66.38964381 48 63 C48.99 63.495 48.99 63.495 50 64 C48.29711802 65.13323463 46.58741477 66.25622235 44.875 67.375 C43.92367187 68.00148438 42.97234375 68.62796875 41.9921875 69.2734375 C37.15981321 72.06183102 32.60575703 73.71562856 27 73 C24.25 71.6875 24.25 71.6875 22 69 C19.46549463 60.68283045 19.82218811 52.03025959 20 43.4375 C20.7629158 27.17208826 20.7629158 27.17208826 14 13 C11.2387023 10.64087329 8.43148648 8.37034911 5.55859375 6.1484375 C3.27346479 4.22962693 1.65463845 2.46245856 0 0 Z " transform="translate(50,118)" style="fill: #EB2BC6;"/><path d="M0 0 C2.5625 0.4375 2.5625 0.4375 4.3125 2.5625 C7.09343697 8.95865504 6.77661942 15.76732447 6.8125 22.625 C6.833125 23.62208984 6.85375 24.61917969 6.875 25.64648438 C6.88015625 26.60232422 6.8853125 27.55816406 6.890625 28.54296875 C6.90464355 29.84463989 6.90464355 29.84463989 6.91894531 31.17260742 C6.5625 33.4375 6.5625 33.4375 5.20996094 35.26293945 C3.5625 36.4375 3.5625 36.4375 0.875 36.125 C0.111875 35.898125 -0.65125 35.67125 -1.4375 35.4375 C-4.07557823 27.17152156 -4.5368198 19.11466534 -4.625 10.5 C-4.63805176 9.74154785 -4.65110352 8.9830957 -4.66455078 8.20166016 C-4.66758439 6.27878582 -4.56042905 4.3564433 -4.4375 2.4375 C-2.4375 0.4375 -2.4375 0.4375 0 0 Z " transform="translate(140.4375,92.5625)" style="fill: #732872;"/><path d="M0 0 C0 0.99 0 1.98 0 3 C1.43750191 4.68798827 1.43750191 4.68798827 3 6 C2.67 6.99 2.34 7.98 2 9 C1.34 8.01 0.68 7.02 0 6 C-2.05925139 5.27617533 -2.05925139 5.27617533 -4 5 C-4 4.34 -4 3.68 -4 3 C-4.99 3.495 -4.99 3.495 -6 4 C-6.53366821 6.6824841 -6.53366821 6.6824841 -6.78125 9.94140625 C-6.90113281 11.16537109 -7.02101563 12.38933594 -7.14453125 13.65039062 C-7.26183594 14.94138672 -7.37914063 16.23238281 -7.5 17.5625 C-9.94977432 43.95814527 -9.94977432 43.95814527 -19 51.5 C-21.75625117 52.87812559 -23.95434552 53.64168771 -27 54 C-27 53.34 -27 52.68 -27 52 C-24.03 51.505 -24.03 51.505 -21 51 C-21.33 49.35 -21.66 47.7 -22 46 C-20.35 45.34 -18.7 44.68 -17 44 C-16.87625 42.7625 -16.7525 41.525 -16.625 40.25 C-16.3910571 37.91057095 -16.13310319 36.25123895 -15.02734375 34.1640625 C-13.90561743 31.80118653 -13.5129825 29.81933044 -13.1484375 27.234375 C-12.95507812 25.90019531 -12.95507812 25.90019531 -12.7578125 24.5390625 C-12.63148437 23.61867188 -12.50515625 22.69828125 -12.375 21.75 C-12.2409375 20.81414063 -12.106875 19.87828125 -11.96875 18.9140625 C-11.63962401 16.61018055 -11.31693851 14.30558476 -11 12 C-11.99 12.33 -12.98 12.66 -14 13 C-14.99 17.95 -15.98 22.9 -17 28 C-17.33 28 -17.66 28 -18 28 C-18.27793548 22.16335498 -17.93520779 17.67019747 -15.828125 12.2109375 C-14.95075375 10.01989943 -14.95075375 10.01989943 -14.484375 7.7265625 C-13.9059283 5.43756627 -13.43575412 3.8821264 -12 2 C-8.11314499 0.4387799 -4.16893724 0 0 0 Z " transform="translate(118,36)" style="fill: #CB27A6;"/><path d="M0 0 C0.07734375 0.6290625 0.1546875 1.258125 0.234375 1.90625 C0.78389277 4.15436055 0.78389277 4.15436055 2.828125 4.90625 C3.62734375 5.1021875 4.4265625 5.298125 5.25 5.5 C6.1471875 5.73460938 7.044375 5.96921875 7.96875 6.2109375 C9.46921875 6.60152344 9.46921875 6.60152344 11 7 C13.25260872 7.6999929 15.50258488 8.40850757 17.75 9.125 C21.8264392 10.42022329 25.76616094 11.37886792 30 12 C30 12.33 30 12.66 30 13 C28.02 13 26.04 13 24 13 C24 13.66 24 14.32 24 15 C25.918125 14.938125 25.918125 14.938125 27.875 14.875 C30.0546875 14.8046875 30.0546875 14.8046875 32 15 C34 17 34 17 34 21 C32.39667209 21.08121924 30.79215974 21.13929134 29.1875 21.1875 C27.84751953 21.23970703 27.84751953 21.23970703 26.48046875 21.29296875 C23.46496587 20.93680699 23.06013009 20.10217356 21 18 C18.27513278 17.20837507 18.27513278 17.20837507 15.3125 16.8125 C14.31863281 16.65394531 13.32476562 16.49539062 12.30078125 16.33203125 C11.16189453 16.16767578 11.16189453 16.16767578 10 16 C10 15.34 10 14.68 10 14 C9.26394531 13.80664062 8.52789062 13.61328125 7.76953125 13.4140625 C6.79371094 13.15367188 5.81789063 12.89328125 4.8125 12.625 C3.84957031 12.36976562 2.88664062 12.11453125 1.89453125 11.8515625 C-0.83998303 11.04707652 -3.42086869 10.21561207 -6 9 C-6.6875 6.9375 -6.6875 6.9375 -7 5 C-7.66 4.67 -8.32 4.34 -9 4 C-8.67 3.01 -8.34 2.02 -8 1 C-2.25 0 -2.25 0 0 0 Z " transform="translate(54,99)" style="fill: #F935C0;"/><path d="M0 0 C0.33 1.32 0.66 2.64 1 4 C5.455 3.505 5.455 3.505 10 3 C8 5 8 5 4.875 5.125 C3.92625 5.08375 2.9775 5.0425 2 5 C2.144375 5.5775 2.28875 6.155 2.4375 6.75 C2.95833333 8.83333333 3.47916667 10.91666667 4 13 C5.65 13.33 7.3 13.66 9 14 C8.01 14.495 8.01 14.495 7 15 C8.4299824 17.8599648 10.43025267 18.41988975 13.25 19.875 C17.18830396 21.96388049 20.59214942 24.10849042 24 27 C24.7425 27.309375 25.485 27.61875 26.25 27.9375 C28 29 28 29 28.8125 31.4375 C29 34 29 34 28 37 C27.96079185 38.99961564 27.95556653 41.00049364 28 43 C26 41 26 41 26 38 C24.68 37.34 23.36 36.68 22 36 C22 35.34 22 34.68 22 34 C20.515 33.505 20.515 33.505 19 33 C19 31.68 19 30.36 19 29 C18.1028125 28.566875 18.1028125 28.566875 17.1875 28.125 C15 27 15 27 12 25 C12 24.34 12 23.68 12 23 C10.4840625 23.185625 10.4840625 23.185625 8.9375 23.375 C3.72424443 22.87849947 1.39607373 20.84582404 -2 17 C-4.54365436 12.79744062 -4.45573638 8.78523195 -4 4 C-2 1.5 -2 1.5 0 0 Z " transform="translate(44,95)" style="fill: #E32DC4;"/><path d="M0 0 C0 0.66 0 1.32 0 2 C0.78246094 2.18175781 1.56492188 2.36351562 2.37109375 2.55078125 C3.38300781 2.80214844 4.39492187 3.05351562 5.4375 3.3125 C6.44683594 3.55613281 7.45617187 3.79976562 8.49609375 4.05078125 C9.32238281 4.36402344 10.14867187 4.67726562 11 5 C11.495 6.485 11.495 6.485 12 8 C14.64 8 17.28 8 20 8 C19.67 8.66 19.34 9.32 19 10 C10.63775737 11.01474405 3.70024584 8.94157804 -4.09692383 6.22216797 C-12.07969676 3.46651641 -18.22997027 2.03550791 -26.19921875 5.54296875 C-30.73474022 7.90245202 -35.02025828 10.61686502 -39.3125 13.390625 C-42 15 -42 15 -44 15 C-43.82421875 13.19140625 -43.82421875 13.19140625 -43 11 C-40.70703125 9.40234375 -40.70703125 9.40234375 -37.8125 7.9375 C-36.81992188 7.42832031 -35.82734375 6.91914063 -34.8046875 6.39453125 C-33.87914063 5.93433594 -32.95359375 5.47414062 -32 5 C-31.34257813 4.65324219 -30.68515625 4.30648437 -30.0078125 3.94921875 C-26.29413507 2 -26.29413507 2 -24 2 C-24 1.34 -24 0.68 -24 0 C-15.96311155 -3.38395303 -8.14601745 -2.4136348 0 0 Z " transform="translate(144,166)" style="fill: #E061CC;"/><path d="M0 0 C0 0.66 0 1.32 0 2 C-0.61875 2.268125 -1.2375 2.53625 -1.875 2.8125 C-4.2995233 3.95556848 -4.2995233 3.95556848 -6 7 C-6.66 7 -7.32 7 -8 7 C-8 7.66 -8 8.32 -8 9 C-8.99 9.3403125 -8.99 9.3403125 -10 9.6875 C-17.03712912 12.64355599 -17.03712912 12.64355599 -22 18 C-22.66 18 -23.32 18 -24 18 C-24 18.66 -24 19.32 -24 20 C-22.68 19.67 -21.36 19.34 -20 19 C-20 19.66 -20 20.32 -20 21 C-26.45478287 24.82260707 -30.57544389 26.78739314 -38 25 C-36.94124926 21.59687262 -35.99097846 18.98646769 -34 16 C-30.28359861 15.72971626 -27.542799 15.819067 -24 17 C-23.9175 16.21625 -23.835 15.4325 -23.75 14.625 C-23 12 -23 12 -21.125 10.6875 C-19 10 -19 10 -16 10 C-15.731875 9.401875 -15.46375 8.80375 -15.1875 8.1875 C-13.98292363 5.96854353 -12.88049437 4.66351425 -11 3 C-10.13375 2.1646875 -10.13375 2.1646875 -9.25 1.3125 C-6.12297189 -0.51159973 -3.5501019 -0.20481357 0 0 Z " transform="translate(120,160)" style="fill: #A5029B;"/><path d="M0 0 C0.66 0.33 1.32 0.66 2 1 C1.01 1.66 0.02 2.32 -1 3 C9.67988521 2.4699529 20.34372444 1.89918304 31 1 C30 3 30 3 28.24438477 3.65429688 C27.48440186 3.84056641 26.72441895 4.02683594 25.94140625 4.21875 C25.08869141 4.42798096 24.23597656 4.63721191 23.35742188 4.8527832 C22.43509766 5.06636475 21.51277344 5.27994629 20.5625 5.5 C19.62341797 5.72067139 18.68433594 5.94134277 17.71679688 6.16870117 C7.3618799 8.509017 -3.3517146 10.22877176 -14 10 C-14 8.68 -14 7.36 -14 6 C-11.71220962 4.96959833 -9.42048864 3.95047982 -7.125 2.9375 C-6.47402344 2.64294922 -5.82304688 2.34839844 -5.15234375 2.04492188 C-3.45989459 1.30338487 -1.73131425 0.64560999 0 0 Z " transform="translate(59,89)" style="fill: #D92BA9;"/><path d="M0 0 C-0.33 1.32 -0.66 2.64 -1 4 C-1.66 4 -2.32 4 -3 4 C-3 4.66 -3 5.32 -3 6 C-3.66 6 -4.32 6 -5 6 C-4.979375 7.11375 -4.95875 8.2275 -4.9375 9.375 C-5 13 -5 13 -6 15 C-6.66 15 -7.32 15 -8 15 C-8.85731127 21.16687772 -9.28684247 27.28188912 -9.5625 33.5 C-9.60568359 34.4178125 -9.64886719 35.335625 -9.69335938 36.28125 C-9.79833456 38.52072061 -9.90049248 40.76028092 -10 43 C-10.66 42.67 -11.32 42.34 -12 42 C-12 41.01 -12 40.02 -12 39 C-12.66 39 -13.32 39 -14 39 C-14.0580476 35.72924117 -14.09361165 32.45861476 -14.125 29.1875 C-14.14175781 28.25873047 -14.15851563 27.32996094 -14.17578125 26.37304688 C-14.18222656 25.48037109 -14.18867188 24.58769531 -14.1953125 23.66796875 C-14.20578613 22.84578857 -14.21625977 22.0236084 -14.22705078 21.17651367 C-14 19 -14 19 -12 16 C-11.83300768 12.87478167 -11.83300768 12.87478167 -12 10 C-11.01 9.67 -10.02 9.34 -9 9 C-9 8.34 -9 7.68 -9 7 C-8.01 7 -7.02 7 -6 7 C-6 5.02 -6 3.04 -6 1 C-3.92446352 0.4465236 -2.15634036 0 0 0 Z " transform="translate(174,105)" style="fill: #D411C3;"/><path d="M0 0 C1.2375 0.1546875 1.2375 0.1546875 2.5 0.3125 C3.16 1.3025 3.82 2.2925 4.5 3.3125 C4.17 4.3025 3.84 5.2925 3.5 6.3125 C2.51 5.3225 1.52 4.3325 0.5 3.3125 C0.5 12.2225 0.5 21.1325 0.5 30.3125 C2.15 30.6425 3.8 30.9725 5.5 31.3125 C5.5 32.6325 5.5 33.9525 5.5 35.3125 C2.48968256 36.24673645 1.63349732 36.35699911 -1.5 35.3125 C-4.51112453 27.28283459 -4.60075725 18.84923512 -4.6875 10.375 C-4.70055176 9.61654785 -4.71360352 8.8580957 -4.72705078 8.07666016 C-4.73008439 6.15378582 -4.62292905 4.2314433 -4.5 2.3125 C-2.5 0.3125 -2.5 0.3125 0 0 Z " transform="translate(140.5,92.6875)" style="fill: #4D1D47;"/><path d="M0 0 C2.6875 -0.3125 2.6875 -0.3125 6 0 C8.75 2.4375 8.75 2.4375 11 5 C11.66 5.33 12.32 5.66 13 6 C13.12375 6.86625 13.12375 6.86625 13.25 7.75 C13.89698328 10.35111982 13.89698328 10.35111982 16.9375 12.4375 C20.51291398 15.42917292 21.74775629 17.38817579 22.19876099 22.05804443 C22.31123015 24.58953934 22.35502603 27.11456222 22.37890625 29.6484375 C22.39590073 30.57919098 22.4128952 31.50994446 22.43040466 32.46890259 C22.48339871 35.43753307 22.52374031 38.4061523 22.5625 41.375 C22.60660635 44.33663324 22.65349943 47.29816532 22.70530701 50.25967407 C22.73694251 52.09941986 22.76392837 53.93925342 22.78553772 55.77914429 C22.86277845 60.61304709 23.19762315 65.23101154 24 70 C23.34 69.67 22.68 69.34 22 69 C19.37779635 60.7459261 19.82319209 51.98174227 20 43.4375 C20.7629158 27.17208826 20.7629158 27.17208826 14 13 C11.2387023 10.64087329 8.43148648 8.37034911 5.55859375 6.1484375 C3.27346479 4.22962693 1.65463845 2.46245856 0 0 Z " transform="translate(50,118)" style="fill: #E776D2;"/><path d="M0 0 C0.66 0.33 1.32 0.66 2 1 C3.39420121 6.50199403 2.82404204 9.47984871 0.1875 14.4375 C-0.12219727 15.02732666 -0.43189453 15.61715332 -0.75097656 16.22485352 C-3.73340931 21.78242962 -7.08902002 27.12558562 -10.53442383 32.40600586 C-14.31249479 38.24429794 -17.2463583 43.65252015 -17.6875 50.75 C-17.75195312 51.7709375 -17.81640625 52.791875 -17.8828125 53.84375 C-18.05811222 58.56515572 -18.08368557 63.27641469 -18 68 C-18.66 68 -19.32 68 -20 68 C-20.05874776 64.66674246 -20.09384467 61.33362062 -20.125 58 C-20.14175781 57.06542969 -20.15851563 56.13085938 -20.17578125 55.16796875 C-20.21606145 49.40790037 -19.65416655 44.5225718 -18 39 C-17.34 39 -16.68 39 -16 39 C-15.67 36.03 -15.34 33.06 -15 30 C-14.34 30 -13.68 30 -13 30 C-13 29.34 -13 28.68 -13 28 C-12.34 27.67 -11.68 27.34 -11 27 C-10.34786708 24.97536745 -10.34786708 24.97536745 -10 23 C-9.34 23 -8.68 23 -8 23 C-8 22.34 -8 21.68 -8 21 C-7.34 20.67 -6.68 20.34 -6 20 C-6 19.01 -6 18.02 -6 17 C-5.01 17 -4.02 17 -3 17 C-2.67 15.35 -2.34 13.7 -2 12 C-1.34 12 -0.68 12 0 12 C0 8.04 0 4.08 0 0 Z " transform="translate(184,81)" style="fill: #DC6CCE;"/><path d="M0 0 C2.76276177 0.52268466 5.3260876 1.10869587 8 2 C9.9115792 5.8231584 9.31517278 10.05448165 8 14 C7.01 14 6.02 14 5 14 C5 14.66 5 15.32 5 16 C3.35 16.33 1.7 16.66 0 17 C0.2784375 15.5459375 0.2784375 15.5459375 0.5625 14.0625 C0.706875 13.051875 0.85125 12.04125 1 11 C0.01732141 9.79438816 0.01732141 9.79438816 -1.84765625 9.90234375 C-3.8984375 9.93489583 -5.94921875 9.96744792 -8 10 C-8 8.68 -8 7.36 -8 6 C-7.34 6 -6.68 6 -6 6 C-6 5.34 -6 4.68 -6 4 C-3.69 4 -1.38 4 1 4 C0.67 2.68 0.34 1.36 0 0 Z " transform="translate(176,79)" style="fill: #EE37AC;"/><path d="M0 0 C1.68915269 3.26831405 3.14169254 6.60702696 4.5625 10 C4.99691406 11.03125 5.43132812 12.0625 5.87890625 13.125 C7.46246943 17.18598432 8.12659526 20.39152246 8.0625 24.75 C8.05347656 25.54921875 8.04445313 26.3484375 8.03515625 27.171875 C8.02355469 27.77515625 8.01195313 28.3784375 8 29 C7.01 29 6.02 29 5 29 C1.25254622 31.82250971 0.09212787 36.19952759 -1.62109375 40.40625 C-3.08477671 43.15946668 -4.38804516 44.3585167 -7 46 C-7.495 44.515 -7.495 44.515 -8 43 C-7.01 42.34 -6.02 41.68 -5 41 C-3.57789857 38.57335671 -3.57789857 38.57335671 -2.375 35.75 C-1.73691406 34.35007812 -1.73691406 34.35007812 -1.0859375 32.921875 C0.97308965 27.38175879 1.16382218 21.9816027 1.125 16.125 C1.12306641 15.42117187 1.12113281 14.71734375 1.11914062 13.9921875 C1.07955805 9.24227807 0.7801511 4.68090661 0 0 Z " transform="translate(119,48)" style="fill: #FB92D1;"/><path d="M0 0 C0.07734375 0.6290625 0.1546875 1.258125 0.234375 1.90625 C0.78389277 4.15436055 0.78389277 4.15436055 2.828125 4.90625 C3.62734375 5.1021875 4.4265625 5.298125 5.25 5.5 C6.1471875 5.73460938 7.044375 5.96921875 7.96875 6.2109375 C9.46921875 6.60152344 9.46921875 6.60152344 11 7 C13.25260872 7.6999929 15.50258488 8.40850757 17.75 9.125 C21.8264392 10.42022329 25.76616094 11.37886792 30 12 C30 12.33 30 12.66 30 13 C24.06 13 18.12 13 12 13 C12 12.34 12 11.68 12 11 C10.82244141 10.81824219 10.82244141 10.81824219 9.62109375 10.6328125 C3.94948787 9.72813917 -1.52492254 8.7420701 -7 7 C-7 6.34 -7 5.68 -7 5 C-7.66 4.67 -8.32 4.34 -9 4 C-8.67 3.01 -8.34 2.02 -8 1 C-2.25 0 -2.25 0 0 0 Z " transform="translate(54,99)" style="fill: #FC58B7;"/><path d="M0 0 C0.33 0 0.66 0 1 0 C5.53186151 13.59558454 3.45641415 27.38886749 -2.68359375 39.99609375 C-4 42 -4 42 -7 43 C-6.67 43.99 -6.34 44.98 -6 46 C-7.90881434 47.03544174 -9.82739204 48.05290085 -11.75 49.0625 C-12.81734375 49.63097656 -13.8846875 50.19945312 -14.984375 50.78515625 C-18.02593537 52.01044806 -19.04893565 52.25348607 -22 51 C-21.01 51 -20.02 51 -19 51 C-19 50.34 -19 49.68 -19 49 C-17.4609375 47.95703125 -17.4609375 47.95703125 -15.375 46.8125 C-9.49010983 43.27530538 -5.02771946 38.69147422 -3 32 C-2.34 32 -1.68 32 -1 32 C0.05728087 25.14016191 0.11639843 18.43216776 0.0625 11.5 C0.05798828 10.39140625 0.05347656 9.2828125 0.04882812 8.140625 C0.03713158 5.42702601 0.02074086 2.71354239 0 0 Z " transform="translate(118,48)" style="fill: #FBB5DF;"/><path d="M0 0 C-1.75 3.875 -1.75 3.875 -4 5 C-4 5.99 -4 6.98 -4 8 C-13.03698325 9.1741788 -21.86661545 10.28994872 -31 10 C-27.10165554 6.43707715 -23.79375758 5.11635782 -18.6875 3.875 C-18.02395508 3.71032227 -17.36041016 3.54564453 -16.67675781 3.37597656 C-14.78670741 2.90832568 -12.89342845 2.45378031 -11 2 C-9.4162746 1.58482604 -7.83283586 1.1685525 -6.25 0.75 C-3 0 -3 0 0 0 Z " transform="translate(87,83)" style="fill: #C513A5;"/><path d="M0 0 C0.33 0 0.66 0 1 0 C1.40935252 9.82446052 -0.16914866 17.86243824 -6 26 C-9.54445798 28.95371499 -12.41311596 30.46036658 -17 31 C-17 30.34 -17 29.68 -17 29 C-15.02 28.67 -13.04 28.34 -11 28 C-11.33 26.35 -11.66 24.7 -12 23 C-10.35 22.34 -8.7 21.68 -7 21 C-6.896875 19.845 -6.79375 18.69 -6.6875 17.5 C-6.13964887 12.98828481 -4.7225121 9.19394251 -3 5 C-2.34 5 -1.68 5 -1 5 C-0.67 3.35 -0.34 1.7 0 0 Z " transform="translate(108,59)" style="fill: #EB43B0;"/><path d="M0 0 C3.35268587 5.02902881 4.85836837 11.01488112 5.5625 17 C5.71073374 20.10917714 5.71073374 20.10917714 8 22 C9.32 22.66 10.64 23.32 12 24 C8.04 24 4.08 24 0 24 C-1.02586716 19.89653135 -1.14775473 16.18687102 -1.125 12 C-1.12886719 11.2884375 -1.13273437 10.576875 -1.13671875 9.84375 C-1.13033978 6.42461983 -1.07200732 3.26706994 0 0 Z " transform="translate(105,112)" style="fill: #E926BD;"/><path d="M0 0 C2.52588702 2.36292656 3.88820837 3.66462511 5 7 C5.06970052 9.39490986 5.08448003 11.79167691 5.0625 14.1875 C5.05347656 15.45980469 5.04445313 16.73210937 5.03515625 18.04296875 C5.02355469 19.01878906 5.01195313 19.99460937 5 21 C4.34 21.33 3.68 21.66 3 22 C2.59270772 24.32156597 2.25561323 26.6568787 2 29 C2.66 29.33 3.32 29.66 4 30 C2.68 29.67 1.36 29.34 0 29 C0 25.37 0 21.74 0 18 C0.66 18 1.32 18 2 18 C1.505 17.030625 1.01 16.06125 0.5 15.0625 C-1.36395475 10.7543027 -1.49074957 6.63380841 -1 2 C-0.67 1.34 -0.34 0.68 0 0 Z " transform="translate(113,99)" style="fill: #91518E;"/><path d="M0 0 C-1.98 0.99 -1.98 0.99 -4 2 C1.32932432 3.70084819 6.43109483 4.52013969 12 5 C12 5.66 12 6.32 12 7 C17.61 7 23.22 7 29 7 C26 10 26 10 22.1640625 10.14453125 C20.64993279 10.05023019 19.13678785 9.93890794 17.625 9.8125 C16.49191406 9.74579102 16.49191406 9.74579102 15.3359375 9.67773438 C11.13765964 9.38047869 7.90259868 8.64651829 4 7 C2.2984375 7.2475 2.2984375 7.2475 0.5625 7.5 C-3.32081238 8.0450263 -5.42301101 7.48314178 -9 6 C-9.33 4.35 -9.66 2.7 -10 1 C-6.59437148 0.22157062 -3.49234244 -0.09978121 0 0 Z " transform="translate(64,97)" style="fill: #FD81CB;"/><path d="M0 0 C2.3125 0.0625 2.3125 0.0625 5 1 C9.26520228 8.464104 9.18049977 16.8497213 9.1875 25.25 C9.19974609 26.03890625 9.21199219 26.8278125 9.22460938 27.640625 C9.2425032 34.70272256 9.2425032 34.70272256 7 38 C5.02 38 3.04 38 1 38 C0.34 36.68 -0.32 35.36 -1 34 C1.64 34.66 4.28 35.32 7 36 C6.35355339 32.88214887 6.35355339 32.88214887 4 32 C4 29.69 4 27.38 4 25 C4.99 24.67 5.98 24.34 7 24 C6.91224337 21.79095369 6.80405633 19.58271407 6.6875 17.375 C6.60048828 15.53035156 6.60048828 15.53035156 6.51171875 13.6484375 C5.74773179 8.20138541 3.4186684 4.23263707 0 0 Z " transform="translate(111,96)" style="fill: #6D1E61;"/><path d="M0 0 C-2.91314967 2.91314967 -5.70121807 2.33346918 -9.6875 2.4609375 C-12.11374911 2.74980815 -12.11374911 2.74980815 -13.15234375 4.7109375 C-13.43207031 5.46632813 -13.71179688 6.22171875 -14 7 C-14.41378906 7.83015625 -14.82757813 8.6603125 -15.25390625 9.515625 C-18.24967225 15.69771352 -18.24967225 15.69771352 -19.5625 22.375 C-20.06065203 26.50254537 -20.99643309 28.1731135 -24 31 C-24.99 31 -25.98 31 -27 31 C-25.01723106 24.3295922 -22.33501056 18.31920254 -19.0625 12.1875 C-18.63259766 11.35541016 -18.20269531 10.52332031 -17.75976562 9.66601562 C-12.81811322 0.3151195 -12.81811322 0.3151195 -8.125 -1.875 C-5.11618598 -2.05198906 -2.78189319 -1.07482237 0 0 Z " transform="translate(118,35)" style="fill: #EA87D9;"/><path d="M0 0 C0.33 0 0.66 0 1 0 C1 6.27 1 12.54 1 19 C2.32 19.33 3.64 19.66 5 20 C5 21.98 5 23.96 5 26 C4.34 26 3.68 26 3 26 C2.67 24.68 2.34 23.36 2 22 C1.34 22.66 0.68 23.32 0 24 C-3.78735524 25.89367762 -6.79117368 26.19575936 -11 26 C-10.67 25.34 -10.34 24.68 -10 24 C-9.34 24 -8.68 24 -8 24 C-8 23.34 -8 22.68 -8 22 C-7.34 21.67 -6.68 21.34 -6 21 C-6.99 20.67 -7.98 20.34 -9 20 C-8.67 18.68 -8.34 17.36 -8 16 C-8 16.66 -8 17.32 -8 18 C-5.69 18 -3.38 18 -1 18 C-0.505 9.09 -0.505 9.09 0 0 Z M3 12 C3.33 12 3.66 12 4 12 C4 14.31 4 16.62 4 19 C3.34 18.67 2.68 18.34 2 18 C2.33 16.02 2.66 14.04 3 12 Z " transform="translate(147,110)" style="fill: #CF13B5;"/><path d="M0 0 C0.66 0.33 1.32 0.66 2 1 C2 1.66 2 2.32 2 3 C3.98 3.66 5.96 4.32 8 5 C8 5.66 8 6.32 8 7 C8.598125 7.0825 9.19625 7.165 9.8125 7.25 C12.5966296 8.20455872 13.43311142 9.57132271 15 12 C9.59255982 12.77249145 4.46137814 13.09752461 -1 13 C-1.02696365 11.20841511 -1.04637917 9.41671527 -1.0625 7.625 C-1.07410156 6.62726563 -1.08570313 5.62953125 -1.09765625 4.6015625 C-1 2 -1 2 0 0 Z " transform="translate(137,68)" style="fill: #EE3AAB;"/><path d="M0 0 C0 0.66 0 1.32 0 2 C1.17369141 2.29003906 1.17369141 2.29003906 2.37109375 2.5859375 C3.88896484 2.97652344 3.88896484 2.97652344 5.4375 3.375 C6.44683594 3.63023437 7.45617187 3.88546875 8.49609375 4.1484375 C11 5 11 5 12 7 C8.85289426 6.36026485 5.70756341 5.71219502 2.5625 5.0625 C1.66466797 4.88009766 0.76683594 4.69769531 -0.15820312 4.50976562 C-1.01220703 4.33251953 -1.86621094 4.15527344 -2.74609375 3.97265625 C-3.93223267 3.72914429 -3.93223267 3.72914429 -5.14233398 3.48071289 C-7 3 -7 3 -8 2 C-10.69654854 1.92680379 -13.36691458 1.90757463 -16.0625 1.9375 C-17.20041992 1.94426758 -17.20041992 1.94426758 -18.36132812 1.95117188 C-20.24091871 1.9629932 -22.12046899 1.98092922 -24 2 C-24 1.34 -24 0.68 -24 0 C-15.96311155 -3.38395303 -8.14601745 -2.4136348 0 0 Z " transform="translate(144,166)" style="fill: #BE1FAD;"/><path d="M0 0 C0.71220703 -0.01224609 1.42441406 -0.02449219 2.15820312 -0.03710938 C6.2892489 -0.04857389 9.47517002 0.34227508 13.1875 2.1875 C13.1875 3.1775 13.1875 4.1675 13.1875 5.1875 C5.2675 5.1875 -2.6525 5.1875 -10.8125 5.1875 C-10.4825 3.8675 -10.1525 2.5475 -9.8125 1.1875 C-6.6995419 -0.36897905 -3.41338167 0.00303952 0 0 Z " transform="translate(130.8125,154.8125)" style="fill: #A20199;"/><path d="M0 0 C0.33 0 0.66 0 1 0 C1.05534912 1.19077148 1.11069824 2.38154297 1.16772461 3.60839844 C1.3742755 8.02916952 1.58612061 12.4496738 1.79956055 16.87011719 C1.89117388 18.78280898 1.98135416 20.69556998 2.07006836 22.60839844 C2.19788331 25.35891896 2.33086135 28.10914886 2.46484375 30.859375 C2.50343002 31.71368103 2.5420163 32.56798706 2.58177185 33.44818115 C2.62173782 34.24870911 2.6617038 35.04923706 2.70288086 35.87402344 C2.73619003 36.57573669 2.76949921 37.27744995 2.80381775 38.00042725 C2.98588288 40.35903643 2.98588288 40.35903643 4 44 C7.3 44.33 10.6 44.66 14 45 C10.53001271 47.31332486 9.07490752 47.33957563 5 47 C1.51364673 44.67576449 1.21774955 43.23726598 0.35308838 39.26074219 C-0.2281871 35.53897146 -0.24584144 31.88455032 -0.1953125 28.125 C-0.1924826 27.31506592 -0.18965271 26.50513184 -0.18673706 25.6706543 C-0.17564715 23.11361166 -0.15056452 20.55693465 -0.125 18 C-0.1149557 16.25391135 -0.1058324 14.50781715 -0.09765625 12.76171875 C-0.07574466 8.50767415 -0.04129382 4.25389881 0 0 Z " transform="translate(72,144)" style="fill: #E743C9;"/><path d="M0 0 C0 5.94 0 11.88 0 18 C-2 16 -2 16 -2.875 12.9375 C-3.66495875 9.94639751 -3.66495875 9.94639751 -5.75 9 C-8.81731361 9 -11.1384254 9.91260165 -14 11 C-16 11.66666667 -18 12.33333333 -20 13 C-17.60284956 9.00474927 -15.39239707 8.26703762 -11 7 C-8.55256591 6.12913388 -6.34597016 5.14998537 -4 4 C-3.67 3.01 -3.34 2.02 -3 1 C-1 0 -1 0 0 0 Z " transform="translate(108,99)" style="fill: #FC66BF;"/><path d="M0 0 C0.99 0 1.98 0 3 0 C3.02716824 2.54173977 3.04691969 5.08318415 3.0625 7.625 C3.07087891 8.33785156 3.07925781 9.05070313 3.08789062 9.78515625 C3.10710296 13.97344438 2.8267327 17.8728462 2 22 C-0.64 22 -3.28 22 -6 22 C-6 21.67 -6 21.34 -6 21 C-4.02 20.67 -2.04 20.34 0 20 C0 19.34 0 18.68 0 18 C-0.66 17.67 -1.32 17.34 -2 17 C-2.22084624 10.90218999 -2.01167675 5.78357065 0 0 Z " transform="translate(162,152)" style="fill: #C20BB8;"/><path d="M0 0 C2.31 0 4.62 0 7 0 C6.649375 0.598125 6.29875 1.19625 5.9375 1.8125 C4.66695302 4.10813214 4.66695302 4.10813214 6 7 C6.1875 10.5625 6.1875 10.5625 6 14 C5.34 14.66 4.68 15.32 4 16 C3.35232207 18.57061311 3.35232207 18.57061311 3 21 C2.67 21 2.34 21 2 21 C0.79556805 13.94546999 -0.28100502 7.16562789 0 0 Z " transform="translate(146,96)" style="fill: #F52FBD;"/><path d="M0 0 C0.99 0 1.98 0 3 0 C3 0.66 3 1.32 3 2 C4.423125 2.185625 4.423125 2.185625 5.875 2.375 C9 3 9 3 11 5 C14.09343096 5.86772257 17.20945599 6.53215208 20.34765625 7.21875 C21.22292969 7.4765625 22.09820312 7.734375 23 8 C23.33 8.66 23.66 9.32 24 10 C20.25 11.125 20.25 11.125 18 10 C18.33 10.99 18.66 11.98 19 13 C15.18913799 11.63654311 12.20215324 9.88163266 8.9375 7.5 C6.03538098 5.38936799 3.26143165 3.50643494 0 2 C0 1.34 0 0.68 0 0 Z " transform="translate(51,110)" style="fill: #D713BE;"/><path d="M0 0 C0.33 0.66 0.66 1.32 1 2 C0.35891863 3.67667436 -0.31471955 5.34089996 -1 7 C-2.00347627 10.63760147 -2.87485598 14.15812208 -3.4296875 17.890625 C-3.57664062 18.87546875 -3.72359375 19.8603125 -3.875 20.875 C-3.99617188 21.80054687 -4.11734375 22.72609375 -4.2421875 23.6796875 C-5 26 -5 26 -7.0703125 27.3203125 C-7.70710938 27.54460937 -8.34390625 27.76890625 -9 28 C-9.6875 26.25 -9.6875 26.25 -10 24 C-9.52949219 23.38898438 -9.05898437 22.77796875 -8.57421875 22.1484375 C-6.8138824 19.74599334 -6.51486527 18.29423509 -6.125 15.375 C-5.14004192 9.66903594 -2.80069757 5.02415212 0 0 Z " transform="translate(104,41)" style="fill: #EB28C0;"/><path d="M0 0 C1.65 0 3.3 0 5 0 C5 0.99 5 1.98 5 3 C6.32 3 7.64 3 9 3 C9.103125 3.639375 9.20625 4.27875 9.3125 4.9375 C9.6528125 5.9584375 9.6528125 5.9584375 10 7 C10.99 7.33 11.98 7.66 13 8 C13.33 7.34 13.66 6.68 14 6 C14.33 7.32 14.66 8.64 15 10 C15.33 9.34 15.66 8.68 16 8 C15.67 9.65 15.34 11.3 15 13 C9.58461538 13.36923077 9.58461538 13.36923077 6.625 11.5 C6.08875 11.005 5.5525 10.51 5 10 C5.66 8.68 6.32 7.36 7 6 C6.34 6 5.68 6 5 6 C4.67 5.34 4.34 4.68 4 4 C3.01 3.67 2.02 3.34 1 3 C0.67 2.01 0.34 1.02 0 0 Z " transform="translate(147,160)" style="fill: #990195;"/><path d="M0 0 C0.11083416 5.43087408 0.11115605 10.66645094 -1 16 C-1.66 16.33 -2.32 16.66 -3 17 C-3.65213292 19.02463255 -3.65213292 19.02463255 -4 21 C-4.66 21 -5.32 21 -6 21 C-4.68965517 0 -4.68965517 0 0 0 Z " transform="translate(111,43)" style="fill: #DB2CA8;"/><path d="M0 0 C0.62261719 0.12117188 1.24523437 0.24234375 1.88671875 0.3671875 C7.01218393 1.29649081 12.07174921 2.03528362 17.26171875 2.47265625 C18.18573486 2.55080566 19.10975098 2.62895508 20.06176758 2.70947266 C21.91101451 2.85936389 23.76115468 2.99867953 25.61206055 3.12646484 C30.7311897 3.54177338 34.50744369 4.27926045 39 7 C38.01 7.66 37.02 8.32 36 9 C36 8.34 36 7.68 36 7 C35.09507812 7.01740234 35.09507812 7.01740234 34.171875 7.03515625 C32.97304687 7.04869141 32.97304687 7.04869141 31.75 7.0625 C30.56664062 7.07990234 30.56664062 7.07990234 29.359375 7.09765625 C27.09308998 7.00385306 25.1711105 6.63241063 23 6 C23 5.34 23 4.68 23 4 C21.38931641 4.03480469 21.38931641 4.03480469 19.74609375 4.0703125 C18.30990285 4.08908624 16.87370435 4.1072847 15.4375 4.125 C14.73302734 4.14175781 14.02855469 4.15851563 13.30273438 4.17578125 C8.48108178 4.22022044 4.57702562 3.52768004 0 2 C0 1.34 0 0.68 0 0 Z " transform="translate(145,73)" style="fill: #D460C2;"/><path d="M0 0 C2.0081326 0.28020455 4.0075675 0.62406934 6 1 C10.00441823 1.75087141 13.76278238 2.11955493 17.8359375 2.09765625 C19.43115234 2.09282227 19.43115234 2.09282227 21.05859375 2.08789062 C22.15300781 2.07951172 23.24742188 2.07113281 24.375 2.0625 C25.49261719 2.05798828 26.61023438 2.05347656 27.76171875 2.04882812 C30.50786804 2.03709244 33.25390586 2.02067363 36 2 C36 2.66 36 3.32 36 4 C24.92298915 5.70415551 8.63940265 7.42626843 -1 1 C-0.67 0.67 -0.34 0.34 0 0 Z " transform="translate(60,98)" style="fill: #F9BCE1;"/><path d="M0 0 C0 1.65 0 3.3 0 5 C0.66 5 1.32 5 2 5 C2 5.99 2 6.98 2 8 C2.99 8.33 3.98 8.66 5 9 C1.37 8.67 -2.26 8.34 -6 8 C-6.33 7.01 -6.66 6.02 -7 5 C-7.66 4.67 -8.32 4.34 -9 4 C-8.67 3.01 -8.34 2.02 -8 1 C-2.25 0 -2.25 0 0 0 Z " transform="translate(54,99)" style="fill: #FC49B2;"/><path d="M0 0 C-3.98311434 2.65540956 -8.2205594 4.78520397 -12.46289062 6.99023438 C-15.87640129 8.78664088 -18.91469567 10.67325749 -22 13 C-22.66 13 -23.32 13 -24 13 C-23.82421875 11.19140625 -23.82421875 11.19140625 -23 9 C-20.70703125 7.40234375 -20.70703125 7.40234375 -17.8125 5.9375 C-16.81476563 5.42832031 -15.81703125 4.91914063 -14.7890625 4.39453125 C-13.86867188 3.93433594 -12.94828125 3.47414062 -12 3 C-10.906875 2.38125 -9.81375 1.7625 -8.6875 1.125 C-5.61097082 -0.16284942 -3.30337323 -0.23595523 0 0 Z " transform="translate(124,168)" style="fill: #DB6DCB;"/><path d="M0 0 C4.42388073 4.42388073 5.11539788 8.84015568 5.125 14.9375 C5.09334369 16.29193765 5.05525226 17.64631959 5 19 C4.01 19 3.02 19 2 19 C1.34 19.33 0.68 19.66 0 20 C0 13.4 0 6.8 0 0 Z " transform="translate(122,58)" style="fill: #FD7CCA;"/><path d="M0 0 C-0.33 0.99 -0.66 1.98 -1 3 C-3.80855941 4.07612171 -6.48834858 4.95286914 -9.375 5.75 C-10.15617187 5.98332031 -10.93734375 6.21664062 -11.7421875 6.45703125 C-17.60195132 8.13268289 -17.60195132 8.13268289 -21 7 C-19.68 6.67 -18.36 6.34 -17 6 C-17 5.34 -17 4.68 -17 4 C-11.29350287 1.73707872 -6.21539617 0 0 0 Z " transform="translate(87,83)" style="fill: #BD06A5;"/><path d="M0 0 C6.27 0.33 12.54 0.66 19 1 C19 1.66 19 2.32 19 3 C19.99 3.33 20.98 3.66 22 4 C19.27056463 4.05416741 16.54221436 4.09375225 13.8125 4.125 C12.65911133 4.15013672 12.65911133 4.15013672 11.48242188 4.17578125 C7.1850566 4.21266851 3.92098169 3.9958504 0 2 C0 1.34 0 0.68 0 0 Z " transform="translate(149,76)" style="fill: #CA1BAA;"/><path d="M0 0 C0.66 0.33 1.32 0.66 2 1 C1.2884375 2.36125 1.2884375 2.36125 0.5625 3.75 C-2.99780691 12.07977466 -2.15751331 22.10924874 -2 31 C-2.66 31 -3.32 31 -4 31 C-4.05874776 27.66674246 -4.09384467 24.33362062 -4.125 21 C-4.14175781 20.06542969 -4.15851563 19.13085938 -4.17578125 18.16796875 C-4.21606145 12.40790037 -3.65416655 7.5225718 -2 2 C-1.34 2 -0.68 2 0 2 C0 1.34 0 0.68 0 0 Z " transform="translate(168,118)" style="fill: #E266D1;"/><path d="M0 0 C0 0.66 0 1.32 0 2 C-2.28703308 3.19725883 -4.57884862 4.38297018 -6.875 5.5625 C-7.52597656 5.90474609 -8.17695312 6.24699219 -8.84765625 6.59960938 C-10.53529857 7.46082891 -12.26579593 8.23686703 -14 9 C-14.66 8.67 -15.32 8.34 -16 8 C-7.77952756 -0.4488189 -7.77952756 -0.4488189 0 0 Z " transform="translate(120,160)" style="fill: #AE02A2;"/><path d="M0 0 C0.99 0.99 1.98 1.98 3 3 C3.99 2.67 4.98 2.34 6 2 C6.226875 2.78375 6.45375 3.5675 6.6875 4.375 C7.78125 7.21875 7.78125 7.21875 10.625 8.3125 C11.800625 8.6528125 11.800625 8.6528125 13 9 C13 9.33 13 9.66 13 10 C9.04 10 5.08 10 1 10 C0.67 6.7 0.34 3.4 0 0 Z " transform="translate(104,126)" style="fill: #E913CA;"/><path d="M0 0 C3.49653864 3.73767924 4.91221809 7.19276333 6.2890625 12.01171875 C6.90986624 14.19503219 6.90986624 14.19503219 9 16 C9.265625 18.09375 9.265625 18.09375 9.25 20.5 C9.25515625 21.2940625 9.2603125 22.088125 9.265625 22.90625 C9 25 9 25 7 27 C6.82984375 26.09378906 6.6596875 25.18757813 6.484375 24.25390625 C5.18735129 17.7342924 3.84435604 11.78651313 0.76953125 5.8671875 C0 4 0 4 0 0 Z " transform="translate(120,48)" style="fill: #FE54B6;"/><path d="M0 0 C0.33 0 0.66 0 1 0 C1.66 3.63 2.32 7.26 3 11 C4.65 11.33 6.3 11.66 8 12 C8 13.32 8 14.64 8 16 C4.98968256 16.93423645 4.13349732 17.04449911 1 16 C-0.50156874 12.99686252 -0.09281204 10.20932478 -0.0625 6.875 C-0.05347656 5.59367187 -0.04445312 4.31234375 -0.03515625 2.9921875 C-0.02355469 2.00476563 -0.01195312 1.01734375 0 0 Z " transform="translate(138,112)" style="fill: #3C2539;"/><path d="M0 0 C0.33 3.96 0.66 7.92 1 12 C3.97 12.495 3.97 12.495 7 13 C7 13.99 7 14.98 7 16 C4.125 16.125 4.125 16.125 1 16 C-2.23086851 12.76913149 -2.06208032 9.13864772 -2.125 4.75 C-1.96666667 0 -1.96666667 0 0 0 Z " transform="translate(111,116)" style="fill: #311C2B;"/><path d="M0 0 C3.875 1.75 3.875 1.75 5 4 C5.13415472 6.6723621 5.04318541 9.32250488 5 12 C3.0625 11.625 3.0625 11.625 1 11 C-0.20272819 8.59454362 -0.10071472 7.05003047 -0.0625 4.375 C-0.05347656 3.55773437 -0.04445312 2.74046875 -0.03515625 1.8984375 C-0.02355469 1.27195312 -0.01195312 0.64546875 0 0 Z " transform="translate(140,95)" style="fill: #CDB4C9;"/><path d="M0 0 C0.33 0 0.66 0 1 0 C1 2.64 1 5.28 1 8 C0.01 8.33 -0.98 8.66 -2 9 C-2.73323796 11.01508358 -2.73323796 11.01508358 -3 13 C-4.98 13.33 -6.96 13.66 -9 14 C-8.60167969 13.49210937 -8.20335938 12.98421875 -7.79296875 12.4609375 C-4.71433825 8.46096502 -2.08404386 4.63120857 0 0 Z " transform="translate(90,66)" style="fill: #F26CD3;"/><path d="M0 0 C0 0.99 0 1.98 0 3 C-0.66 3 -1.32 3 -2 3 C-2 3.66 -2 4.32 -2 5 C-3.32 5.33 -4.64 5.66 -6 6 C-6 6.66 -6 7.32 -6 8 C-8.31 8.33 -10.62 8.66 -13 9 C-13 8.34 -13 7.68 -13 7 C-12.34 7 -11.68 7 -11 7 C-10.67 6.01 -10.34 5.02 -10 4 C-7.71484375 2.83203125 -7.71484375 2.83203125 -4.9375 1.8125 C-4.01839844 1.46832031 -3.09929687 1.12414062 -2.15234375 0.76953125 C-1.44207031 0.51558594 -0.73179688 0.26164062 0 0 Z " transform="translate(111,94)" style="fill: #F889CF;"/><path d="M0 0 C3.82386347 3.52972012 7.26747509 7.56420123 10 12 C10 12.99 10 13.98 10 15 C8.02 14.34 6.04 13.68 4 13 C4 12.01 4 11.02 4 10 C3.34 9.67 2.68 9.34 2 9 C2 7.68 2 6.36 2 5 C1.34 5 0.68 5 0 5 C0 3.35 0 1.7 0 0 Z " transform="translate(134,59)" style="fill: #E964BF;"/><path d="M0 0 C0.66 0 1.32 0 2 0 C2.33 5.28 2.66 10.56 3 16 C2.34 15.34 1.68 14.68 1 14 C1 14.99 1 15.98 1 17 C0.34 17 -0.32 17 -1 17 C-1.02721176 15.10424749 -1.04649136 13.20838021 -1.0625 11.3125 C-1.07410156 10.25675781 -1.08570313 9.20101562 -1.09765625 8.11328125 C-1.00865425 5.27589738 -0.64939838 2.7561081 0 0 Z " transform="translate(149,112)" style="fill: #E712CA;"/><path d="M0 0 C1.65 0 3.3 0 5 0 C4.67 0.66 4.34 1.32 4 2 C3.34 2 2.68 2 2 2 C1.67 6.95 1.34 11.9 1 17 C0.34 17 -0.32 17 -1 17 C-1.02691685 14.54159395 -1.04679802 12.08348118 -1.0625 9.625 C-1.07087891 8.92632812 -1.07925781 8.22765625 -1.08789062 7.5078125 C-1.11328125 2.2265625 -1.11328125 2.2265625 0 0 Z " transform="translate(109,97)" style="fill: #381232;"/><path d="M0 0 C0.33 1.32 0.66 2.64 1 4 C5.455 3.505 5.455 3.505 10 3 C8 5 8 5 4.875 5.125 C3.92625 5.08375 2.9775 5.0425 2 5 C1.67 6.32 1.34 7.64 1 9 C-0.32 9 -1.64 9 -3 9 C-3.36923077 3.46153846 -3.36923077 3.46153846 -1.5 1.125 C-1.005 0.75375 -0.51 0.3825 0 0 Z " transform="translate(44,95)" style="fill: #E439B1;"/><path d="M0 0 C0.72896484 -0.01224609 1.45792969 -0.02449219 2.20898438 -0.03710938 C6.0338391 -0.04762685 7.80606564 0.01654376 11.0625 2.1875 C10.09828125 2.23648438 9.1340625 2.28546875 8.140625 2.3359375 C6.87734375 2.41070312 5.6140625 2.48546875 4.3125 2.5625 C2.43304688 2.66691406 2.43304688 2.66691406 0.515625 2.7734375 C-2.63434006 3.15114824 -4.22349766 3.73609875 -6.9375 5.1875 C-8.2575 5.1875 -9.5775 5.1875 -10.9375 5.1875 C-10.5625 3.25 -10.5625 3.25 -9.9375 1.1875 C-6.79347519 -0.3845124 -3.44802603 0.00303256 0 0 Z " transform="translate(130.9375,154.8125)" style="fill: #B800AB;"/><path d="M0 0 C0.33 0 0.66 0 1 0 C1.66 3.63 2.32 7.26 3 11 C3.99 11 4.98 11 6 11 C6 11.99 6 12.98 6 14 C7.32 14.33 8.64 14.66 10 15 C9.67 16.32 9.34 17.64 9 19 C1.02796241 12.79715792 1.02796241 12.79715792 0 8 C-0.13581352 5.30888018 -0.09149079 2.69897819 0 0 Z " transform="translate(40,99)" style="fill: #E566CF;"/><path d="M0 0 C2.05078125 0.03255208 4.1015625 0.06510417 6.15234375 0.09765625 C5.82234375 1.74765625 5.49234375 3.39765625 5.15234375 5.09765625 C5.81234375 5.42765625 6.47234375 5.75765625 7.15234375 6.09765625 C4.18234375 6.09765625 1.21234375 6.09765625 -1.84765625 6.09765625 C-2.22984392 4.44150968 -2.56160727 2.77308601 -2.84765625 1.09765625 C-1.84765625 0.09765625 -1.84765625 0.09765625 0 0 Z " transform="translate(138.84765625,87.90234375)" style="fill: #F252AD;"/><path d="M0 0 C2 2 2 2 2.1953125 5.2578125 C2.16050781 7.17207031 2.16050781 7.17207031 2.125 9.125 C2.10695313 10.40632813 2.08890625 11.68765625 2.0703125 13.0078125 C2.04710938 13.99523437 2.02390625 14.98265625 2 16 C0 14 0 14 -1 10.9375 C-1.65752556 7.87849194 -1.65752556 7.87849194 -4 7 C-2.68 4.69 -1.36 2.38 0 0 Z " transform="translate(106,101)" style="fill: #F352B6;"/><path d="M0 0 C0.33 0 0.66 0 1 0 C0.67 2.64 0.34 5.28 0 8 C-0.99 8 -1.98 8 -3 8 C-3 8.66 -3 9.32 -3 10 C-4.65 10.33 -6.3 10.66 -8 11 C-6.375 5.25 -6.375 5.25 -3 3 C-2.01 3 -1.02 3 0 3 C0 2.01 0 1.02 0 0 Z " transform="translate(184,85)" style="fill: #F330C2;"/><path d="M0 0 C0.66 0 1.32 0 2 0 C1.14171712 4.10068488 0.00427341 6.34655108 -3.3125 8.8125 C-6.14835746 10.66351993 -8.57789814 11.68889983 -12 12 C-12 11.34 -12 10.68 -12 10 C-10.02 9.67 -8.04 9.34 -6 9 C-6.33 7.35 -6.66 5.7 -7 4 C-5.68 3.34 -4.36 2.68 -3 2 C-3 3.32 -3 4.64 -3 6 C-2.01 4.02 -1.02 2.04 0 0 Z " transform="translate(103,78)" style="fill: #ED54B8;"/><path d="M0 0 C0.99 0 1.98 0 3 0 C3.35475877 3.81365679 3.2619932 5.58442458 1.1875 8.875 C-1 11 -1 11 -4 11 C-3.52269162 9.5410574 -3.04308958 8.08286504 -2.5625 6.625 C-2.29566406 5.81289063 -2.02882813 5.00078125 -1.75390625 4.1640625 C-1 2 -1 2 0 0 Z " transform="translate(95,55)" style="fill: #ED62D0;"/><path d="M0 0 C0.66 0 1.32 0 2 0 C3.6640793 2.07197086 5.18561107 4.12814531 6.6875 6.3125 C7.33041992 7.20485352 7.33041992 7.20485352 7.98632812 8.11523438 C9.07698635 9.68711701 10.04744898 11.34078424 11 13 C10.67 13.99 10.34 14.98 10 16 C9.896875 15.360625 9.79375 14.72125 9.6875 14.0625 C9.460625 13.381875 9.23375 12.70125 9 12 C8.01 11.67 7.02 11.34 6 11 C2 6.54285714 2 6.54285714 2 4 C1.01 3.67 0.02 3.34 -1 3 C-0.67 2.01 -0.34 1.02 0 0 Z " transform="translate(118,36)" style="fill: #E06FC1;"/><path d="M0 0 C0.66 0.33 1.32 0.66 2 1 C2.125 3.375 2.125 3.375 2 6 C1.34 6.66 0.68 7.32 0 8 C-0.6425235 10.06874034 -0.6425235 10.06874034 -1 12 C-0.01 12.33 0.98 12.66 2 13 C2 13.66 2 14.32 2 15 C-0.97 14.505 -0.97 14.505 -4 14 C-4.31199371 9.42409231 -3.91247585 7.49497103 -1 4 C-0.29485154 1.85266073 -0.29485154 1.85266073 0 0 Z " transform="translate(84,172)" style="fill: #CA19B2;"/><path d="M0 0 C2.3125 0.0625 2.3125 0.0625 5 1 C9.10620531 7.89255891 9.83823098 16.23858032 8 24 C7.67 24 7.34 24 7 24 C6.94392578 22.58847656 6.94392578 22.58847656 6.88671875 21.1484375 C6.82097656 19.90320313 6.75523438 18.65796875 6.6875 17.375 C6.60048828 15.53035156 6.60048828 15.53035156 6.51171875 13.6484375 C5.74773179 8.20138541 3.4186684 4.23263707 0 0 Z " transform="translate(111,96)" style="fill: #5C2156;"/><path d="M0 0 C0.33 0.99 0.66 1.98 1 3 C0.05294552 4.76348076 -0.90454386 6.52390373 -1.95703125 8.2265625 C-3.13004786 10.09813152 -3.13004786 10.09813152 -4 12.75 C-5.19063534 15.4289295 -6.55347778 16.45053593 -9 18 C-9.33 17.01 -9.66 16.02 -10 15 C-9.01 14.34 -8.02 13.68 -7 13 C-5.8834098 11.01958006 -4.84941507 8.99160615 -3.875 6.9375 C-1.07061503 1.07061503 -1.07061503 1.07061503 0 0 Z " transform="translate(121,76)" style="fill: #FE86CC;"/><path d="M0 0 C0.66 0 1.32 0 2 0 C2.93423645 3.01031744 3.04449911 3.86650268 2 7 C-0.33116317 8.60769874 -1.42816426 9.09530596 -4.25 8.625 C-4.8275 8.41875 -5.405 8.2125 -6 8 C-5.1875 6.0625 -5.1875 6.0625 -4 4 C-3.01 3.67 -2.02 3.34 -1 3 C-0.67 2.01 -0.34 1.02 0 0 Z " transform="translate(182,81)" style="fill: #F442B3;"/><path d="M0 0 C8.13952903 -0.61046468 13.5737569 -0.2922002 20 5 C16.81927994 6.59036003 14.43924382 5.08571249 11.125 4.0625 C7.13370093 2.83344653 4.19392746 2 0 2 C0 1.34 0 0.68 0 0 Z " transform="translate(124,167)" style="fill: #E374D3;"/><path d="M0 0 C3.3 0 6.6 0 10 0 C10 0.66 10 1.32 10 2 C12.64 2 15.28 2 18 2 C18.33 2.99 18.66 3.98 19 5 C12.54189755 4.00318287 6.23428168 2.98363508 0 1 C0 0.67 0 0.34 0 0 Z " transform="translate(68,112)" style="fill: #FD44BE;"/><path d="M0 0 C1.65 0 3.3 0 5 0 C5.33 1.32 5.66 2.64 6 4 C7.65 4.33 9.3 4.66 11 5 C10.01 5.495 10.01 5.495 9 6 C8.67 6.66 8.34 7.32 8 8 C6.02 7.01 4.04 6.02 2 5 C2 4.34 2 3.68 2 3 C1.34 3 0.68 3 0 3 C0 2.01 0 1.02 0 0 Z " transform="translate(42,104)" style="fill: #E322BE;"/><path d="M0 0 C0.33 0 0.66 0 1 0 C1.22331199 1.58129029 1.42804644 3.16521089 1.625 4.75 C1.74101562 5.63171875 1.85703125 6.5134375 1.9765625 7.421875 C2.00207817 10.22859878 1.44843844 11.63384866 0 14 C-0.99 13.34 -1.98 12.68 -3 12 C-3 11.34 -3 10.68 -3 10 C-3.66 10 -4.32 10 -5 10 C-4.67 8.68 -4.34 7.36 -4 6 C-3.67 6.66 -3.34 7.32 -3 8 C-2.01 8.33 -1.02 8.66 0 9 C0 6.03 0 3.06 0 0 Z " transform="translate(145,98)" style="fill: #8B3B7F;"/><path d="M0 0 C1.2684375 0.12375 1.2684375 0.12375 2.5625 0.25 C3.2225 1.24 3.8825 2.23 4.5625 3.25 C4.2325 4.24 3.9025 5.23 3.5625 6.25 C2.5725 5.26 1.5825 4.27 0.5625 3.25 C-0.4275 5.23 -1.4175 7.21 -2.4375 9.25 C-2.7675 9.25 -3.0975 9.25 -3.4375 9.25 C-3.53515625 3.09765625 -3.53515625 3.09765625 -3.4375 1.25 C-2.4375 0.25 -2.4375 0.25 0 0 Z " transform="translate(140.4375,92.75)" style="fill: #3A1734;"/><path d="M0 0 C-0.99 0.66 -1.98 1.32 -3 2 C-2.01 2.66 -1.02 3.32 0 4 C-1 5 -1 5 -3.28515625 5.09765625 C-4.65994141 5.08025391 -4.65994141 5.08025391 -6.0625 5.0625 C-6.98160156 5.05347656 -7.90070312 5.04445313 -8.84765625 5.03515625 C-9.55792969 5.02355469 -10.26820312 5.01195313 -11 5 C-10 2 -10 2 -8.22265625 1.015625 C-7.15337891 0.63664062 -7.15337891 0.63664062 -6.0625 0.25 C-5.35222656 -0.01296875 -4.64195313 -0.2759375 -3.91015625 -0.546875 C-2 -1 -2 -1 0 0 Z " transform="translate(61,90)" style="fill: #CF23B0;"/><path d="M0 0 C0.66 0 1.32 0 2 0 C2 0.66 2 1.32 2 2 C2.804375 2.144375 3.60875 2.28875 4.4375 2.4375 C7 3 7 3 8 4 C8.04063832 5.66617115 8.042721 7.33388095 8 9 C7.34 9 6.68 9 6 9 C4.64613064 7.34997172 3.31321858 5.6825613 2 4 C1.34 3.67 0.68 3.34 0 3 C-0.33 3.66 -0.66 4.32 -1 5 C-0.67 3.35 -0.34 1.7 0 0 Z " transform="translate(112,39)" style="fill: #F856BC;"/><path d="M0 0 C0.99 0.33 1.98 0.66 3 1 C3 1.66 3 2.32 3 3 C4.32 2.67 5.64 2.34 7 2 C7 2.66 7 3.32 7 4 C1.25 7 1.25 7 -1 7 C-1 6.01 -1 5.02 -1 4 C-1.66 3.67 -2.32 3.34 -3 3 C-2.01 2.01 -1.02 1.02 0 0 Z " transform="translate(93,177)" style="fill: #A8129E;"/><path d="M0 0 C0.92883992 2.50786779 1.14739489 3.63677687 0.125 6.15625 C-1.25066666 9.63362961 -1.93862337 13.15299195 -2.625 16.8125 C-2.7590625 17.50537109 -2.893125 18.19824219 -3.03125 18.91210938 C-3.35858288 20.60722609 -3.67990594 22.30350146 -4 24 C-4.33 24 -4.66 24 -5 24 C-5.32237613 17.23010127 -4.41548128 12.29203416 -2 6 C-1.608125 4.824375 -1.21625 3.64875 -0.8125 2.4375 C-0.544375 1.633125 -0.27625 0.82875 0 0 Z " transform="translate(105,40)" style="fill: #DB25B7;"/><path d="M0 0 C0.66 0 1.32 0 2 0 C3.4783226 2.95664519 3.06032783 5.74229737 3 9 C1.68 9 0.36 9 -1 9 C-1.125 2.25 -1.125 2.25 0 0 Z " transform="translate(143,115)" style="fill: #8A3A87;"/><path d="M0 0 C-1.3603328 2.7206656 -3.28652495 3.27954134 -6.01171875 4.40234375 C-9.02740349 5.30882659 -11.88384016 5.1907853 -15 5 C-11.42563486 0.374351 -5.53642205 -0.33554073 0 0 Z " transform="translate(105,102)" style="fill: #FD78C6;"/><path d="M0 0 C-2.39763185 2.39763185 -3.33273498 2.34280586 -6.625 2.625 C-7.44226563 2.69976562 -8.25953125 2.77453125 -9.1015625 2.8515625 C-9.72804688 2.90054688 -10.35453125 2.94953125 -11 3 C-10.67 1.68 -10.34 0.36 -10 -1 C-6.18510326 -2.46726798 -3.70988378 -1.43336419 0 0 Z " transform="translate(118,35)" style="fill: #DA6AC4;"/><path d="M0 0 C0.82622671 5.60563042 1.06795656 10.42289352 0 16 C-0.66 16 -1.32 16 -2 16 C-2.02685095 13.52076199 -2.04676547 11.0418116 -2.0625 8.5625 C-2.07506836 7.50192383 -2.07506836 7.50192383 -2.08789062 6.41992188 C-2.09653588 4.61306441 -2.05220011 2.80612397 -2 1 C-1 0 -1 0 0 0 Z " transform="translate(80,160)" style="fill: #F228C5;"/><path d="M0 0 C0 2.64 0 5.28 0 8 C-1.32 8 -2.64 8 -4 8 C-4.04241723 5.66705225 -4.04092937 3.33297433 -4 1 C-3 0 -3 0 0 0 Z " transform="translate(119,120)" style="fill: #883887;"/><path d="M0 0 C2 1.4375 2 1.4375 4 4 C4.35442445 7.02824418 4.23347235 9.96485939 4 13 C0.10769231 8.04615385 0.10769231 8.04615385 -1 5 C-0.625 2.25 -0.625 2.25 0 0 Z " transform="translate(121,43)" style="fill: #F036AE;"/><path d="M0 0 C0 0.99 0 1.98 0 3 C1.43750191 4.68798827 1.43750191 4.68798827 3 6 C2.67 6.99 2.34 7.98 2 9 C1.34 8.01 0.68 7.02 0 6 C-2.05925139 5.27617533 -2.05925139 5.27617533 -4 5 C-4 4.34 -4 3.68 -4 3 C-4.99 3.33 -5.98 3.66 -7 4 C-6.67 3.01 -6.34 2.02 -6 1 C-3.90006779 0.25486277 -2.22568901 0 0 0 Z " transform="translate(118,36)" style="fill: #DF2CA9;"/><path d="M0 0 C1.32 0.33 2.64 0.66 4 1 C4 3.31 4 5.62 4 8 C2.68 7.67 1.36 7.34 0 7 C0 4.69 0 2.38 0 0 Z " transform="translate(113,102)" style="fill: #F5ECF4;"/><path d="M0 0 C2.475 0.495 2.475 0.495 5 1 C5.22304441 2.74818591 5.4278645 4.49870323 5.625 6.25 C5.74101563 7.22453125 5.85703125 8.1990625 5.9765625 9.203125 C6.00112537 12.13429393 5.5312717 13.54528964 4 16 C3.81824219 14.77023438 3.81824219 14.77023438 3.6328125 13.515625 C3.46523437 12.43796875 3.29765625 11.3603125 3.125 10.25 C2.96257812 9.18265625 2.80015625 8.1153125 2.6328125 7.015625 C2.06776118 4.32291129 1.36577086 2.36427561 0 0 Z " transform="translate(115,96)" style="fill: #E852AF;"/><path d="M0 0 C0.66 0.33 1.32 0.66 2 1 C1.34 3.31 0.68 5.62 0 8 C1.32 8.66 2.64 9.32 4 10 C1.36 9.67 -1.28 9.34 -4 9 C-2.94124926 5.59687262 -1.99097846 2.98646769 0 0 Z " transform="translate(86,176)" style="fill: #B70BA9;"/><path d="M0 0 C-0.78375 0.2475 -1.5675 0.495 -2.375 0.75 C-5.11976952 1.72681333 -5.11976952 1.72681333 -6 4 C-7 6 -7 6 -9.625 7.25 C-10.40875 7.4975 -11.1925 7.745 -12 8 C-11.62830496 5.36997598 -11.2921315 4.25479631 -9.2578125 2.48046875 C-8.20207031 1.84044922 -8.20207031 1.84044922 -7.125 1.1875 C-6.42632812 0.74792969 -5.72765625 0.30835938 -5.0078125 -0.14453125 C-3 -1 -3 -1 0 0 Z " transform="translate(112,173)" style="fill: #CB48BE;"/><path d="M0 0 C3 3.625 3 3.625 3 7 C2.34 7 1.68 7 1 7 C1 10.63 1 14.26 1 18 C-1.24959782 13.50080435 -1.07922275 11.65560575 -0.625 6.75 C-0.51414062 5.48671875 -0.40328125 4.2234375 -0.2890625 2.921875 C-0.19367188 1.95765625 -0.09828125 0.9934375 0 0 Z " transform="translate(112,110)" style="fill: #652263;"/><path d="M0 0 C0.33 0.66 0.66 1.32 1 2 C0.37498605 3.68272986 -0.30177383 5.34630643 -1 7 C-1.68679942 9.32748694 -2.35761043 11.65986656 -3 14 C-3.99 14 -4.98 14 -6 14 C-4.50829734 9.0276578 -2.39542583 4.58154261 0 0 Z " transform="translate(104,41)" style="fill: #F239CB;"/><path d="M0 0 C6.27 0 12.54 0 19 0 C19 0.99 19 1.98 19 3 C18.01 2.67 17.02 2.34 16 2 C13.26134713 1.92948886 10.54972412 1.90642235 7.8125 1.9375 C6.68811523 1.94426758 6.68811523 1.94426758 5.54101562 1.95117188 C3.69397617 1.96293646 1.84697787 1.98087135 0 2 C0 1.34 0 0.68 0 0 Z " transform="translate(120,166)" style="fill: #D236BC;"/><path d="M0 0 C2.69282475 4.03923713 3.13300939 6.95536152 3.0625 11.75 C3.05347656 12.54921875 3.04445313 13.3484375 3.03515625 14.171875 C3.01775391 15.07679687 3.01775391 15.07679687 3 16 C2.67 16 2.34 16 2 16 C2 14.35 2 12.7 2 11 C1.34 11 0.68 11 0 11 C0 7.37 0 3.74 0 0 Z " transform="translate(124,61)" style="fill: #FA6AC2;"/><path d="M0 0 C2.91387197 0.2913872 3.82565583 0.79452294 5.75 3.0625 C6.1625 3.701875 6.575 4.34125 7 5 C4.36 5.33 1.72 5.66 -1 6 C-1.042721 4.33388095 -1.04063832 2.66617115 -1 1 C-0.67 0.67 -0.34 0.34 0 0 Z " transform="translate(145,75)" style="fill: #DE2FAB;"/><path d="M0 0 C0.66 0.33 1.32 0.66 2 1 C0.23754778 2.1999038 -1.53526981 3.38459517 -3.3125 4.5625 C-4.79169922 5.55443359 -4.79169922 5.55443359 -6.30078125 6.56640625 C-7.19152344 7.03949219 -8.08226563 7.51257813 -9 8 C-9.99 7.67 -10.98 7.34 -12 7 C-11.34 7 -10.68 7 -10 7 C-10 6.34 -10 5.68 -10 5 C-8.38007835 4.13624104 -6.75388139 3.28424146 -5.125 2.4375 C-4.22007813 1.96183594 -3.31515625 1.48617187 -2.3828125 0.99609375 C-1.20332031 0.50302734 -1.20332031 0.50302734 0 0 Z " transform="translate(98,181)" style="fill: #E07ED6;"/><path d="M0 0 C0.99 0 1.98 0 3 0 C3 2.97 3 5.94 3 9 C0.36 9 -2.28 9 -5 9 C-5 8.67 -5 8.34 -5 8 C-3.02 7.67 -1.04 7.34 1 7 C1 6.34 1 5.68 1 5 C0.34 4.67 -0.32 4.34 -1 4 C-0.67 2.68 -0.34 1.36 0 0 Z " transform="translate(161,165)" style="fill: #AF13A4;"/><path d="M0 0 C0.66 0 1.32 0 2 0 C2 1.32 2 2.64 2 4 C4.97 4.495 4.97 4.495 8 5 C8 5.33 8 5.66 8 6 C6.35 6 4.7 6 3 6 C3 6.66 3 7.32 3 8 C2.01 7.67 1.02 7.34 0 7 C0 4.69 0 2.38 0 0 Z " transform="translate(136,126)" style="fill: #E40FC9;"/><path d="M0 0 C0.66 0.33 1.32 0.66 2 1 C-1.49629546 4.08496658 -4.43587428 5.93180036 -9 7 C-11.18359375 6.54296875 -11.18359375 6.54296875 -13 6 C-12.14535156 5.65066406 -11.29070312 5.30132812 -10.41015625 4.94140625 C-9.30542969 4.48636719 -8.20070313 4.03132813 -7.0625 3.5625 C-5.96035156 3.11003906 -4.85820313 2.65757813 -3.72265625 2.19140625 C-1.13431084 1.25575392 -1.13431084 1.25575392 0 0 Z M-5 5 C-4.34 5 -3.68 5 -3 5 C-3.33 5.66 -3.66 6.32 -4 7 C-4.33 6.34 -4.66 5.68 -5 5 Z " transform="translate(99,86)" style="fill: #FACFED;"/><path d="M0 0 C0.66 0.33 1.32 0.66 2 1 C1.67 2.65 1.34 4.3 1 6 C-0.32 6.33 -1.64 6.66 -3 7 C-3.33 6.01 -3.66 5.02 -4 4 C-2.68 2.68 -1.36 1.36 0 0 Z " transform="translate(94,71)" style="fill: #E927BC;"/><path d="M0 0 C0.66 0 1.32 0 2 0 C3.20220203 3.53094302 2.79532349 6.12898982 2.0625 9.75 C1.86785156 10.73484375 1.67320312 11.7196875 1.47265625 12.734375 C1.31667969 13.48203125 1.16070312 14.2296875 1 15 C0.67 15 0.34 15 0 15 C0 10.05 0 5.1 0 0 Z " transform="translate(140,108)" style="fill: #602564;"/><path d="M0 0 C1.65 0.33 3.3 0.66 5 1 C5.33 2.32 5.66 3.64 6 5 C3.3333581 6.33332095 1.83319697 5.67102033 -1 5 C-0.34 4.67 0.32 4.34 1 4 C0.67 2.68 0.34 1.36 0 0 Z " transform="translate(176,79)" style="fill: #E330AC;"/><path d="M0 0 C3.3 0 6.6 0 10 0 C10 0.66 10 1.32 10 2 C6.78548731 3.60725635 3.56387464 3.05748185 0 3 C0 2.01 0 1.02 0 0 Z " transform="translate(78,186)" style="fill: #DB35C3;"/><path d="M0 0 C1.32 0 2.64 0 4 0 C5.04976964 3.14930893 5.10131595 5.38814456 5.0625 8.6875 C5.05347656 9.68136719 5.04445313 10.67523438 5.03515625 11.69921875 C5.02355469 12.45847656 5.01195313 13.21773437 5 14 C4.67 14 4.34 14 4 14 C3.81824219 12.98679688 3.81824219 12.98679688 3.6328125 11.953125 C3.46523437 11.06109375 3.29765625 10.1690625 3.125 9.25 C2.96257812 8.36828125 2.80015625 7.4865625 2.6328125 6.578125 C2.03203736 4.13052256 1.22002883 2.19400143 0 0 Z " transform="translate(66,133)" style="fill: #EB89D9;"/><path d="M0 0 C0.66 0.33 1.32 0.66 2 1 C1.525625 2.010625 1.05125 3.02125 0.5625 4.0625 C-0.9936328 7.65922205 -1.6012946 11.09268709 -2 15 C-2.33 15 -2.66 15 -3 15 C-3.02708567 13.39592672 -3.04643483 11.7917215 -3.0625 10.1875 C-3.07410156 9.29417969 -3.08570313 8.40085937 -3.09765625 7.48046875 C-3 5 -3 5 -2 2 C-1.34 2 -0.68 2 0 2 C0 1.34 0 0.68 0 0 Z " transform="translate(168,118)" style="fill: #D872D1;"/><path d="M0 0 C0.99 0 1.98 0 3 0 C3.66 0.99 4.32 1.98 5 3 C4.67 3.99 4.34 4.98 4 6 C2.68 6 1.36 6 0 6 C0 4.02 0 2.04 0 0 Z " transform="translate(91,66)" style="fill: #F232CA;"/><path d="M0 0 C0 0.99 0 1.98 0 3 C-2.64 3.66 -5.28 4.32 -8 5 C-8 3 -8 3 -6.8125 1.375 C-4.44439338 -0.42149467 -2.90102749 -0.23521845 0 0 Z " transform="translate(120,164)" style="fill: #91018C;"/><path d="M0 0 C0.66 0.33 1.32 0.66 2 1 C2.40729228 3.32156597 2.74438677 5.6568787 3 8 C1.68 8.99 0.36 9.98 -1 11 C-0.67 7.37 -0.34 3.74 0 0 Z " transform="translate(85,160)" style="fill: #D60FBE;"/><path d="M0 0 C2.0625 0.4375 2.0625 0.4375 4 1 C-0.30769231 4.93846154 -0.30769231 4.93846154 -3.8125 5.25 C-4.534375 5.1675 -5.25625 5.085 -6 5 C-5.195625 4.360625 -4.39125 3.72125 -3.5625 3.0625 C-1.7249496 1.59396498 -1.7249496 1.59396498 0 0 Z " transform="translate(113,160)" style="fill: #BC01AF;"/><path d="M0 0 C0.66 0 1.32 0 2 0 C2 2.97 2 5.94 2 9 C1.01 9.33 0.02 9.66 -1 10 C-0.67 6.7 -0.34 3.4 0 0 Z " transform="translate(149,112)" style="fill: #ED1DC9;"/><path d="M0 0 C0.66 0 1.32 0 2 0 C3.32 2.31 4.64 4.62 6 7 C5.01 7.495 5.01 7.495 4 8 C2 6.25 2 6.25 0 4 C0 2.68 0 1.36 0 0 Z " transform="translate(125,56)" style="fill: #F73CAE;"/><path d="M0 0 C3.96 0.33 7.92 0.66 12 1 C8.53076119 3.31282587 7.07794425 3.42478586 3 3 C2.01 2.01 1.02 1.02 0 0 Z " transform="translate(74,188)" style="fill: #E77ACD;"/><path d="M0 0 C0.99 0.99 1.98 1.98 3 3 C3.66 2.67 4.32 2.34 5 2 C4.625 4.4375 4.625 4.4375 4 7 C3.01 7.495 3.01 7.495 2 8 C0 6 0 6 -0.125 2.875 C-0.08375 1.92625 -0.0425 0.9775 0 0 Z " transform="translate(104,126)" style="fill: #F516CE;"/><path d="M0 0 C2.97550031 3.0684847 3.96474513 4.46236331 4.25 8.8125 C4.1675 9.864375 4.085 10.91625 4 12 C0.54145481 8.54145481 0 4.78095787 0 0 Z " transform="translate(120,48)" style="fill: #FC5FBC;"/><path d="M0 0 C1.65 0 3.3 0 5 0 C5 0.99 5 1.98 5 3 C6.32 3 7.64 3 9 3 C8.67 3.99 8.34 4.98 8 6 C8 5.34 8 4.68 8 4 C5.69 3.67 3.38 3.34 1 3 C0.67 2.01 0.34 1.02 0 0 Z " transform="translate(147,160)" style="fill: #A901A0;"/><path d="M0 0 C0.33 0 0.66 0 1 0 C1.1875 3.375 1.1875 3.375 1 7 C-0.485 7.99 -0.485 7.99 -2 9 C-2 6.69 -2 4.38 -2 2 C-1.34 2 -0.68 2 0 2 C0 1.34 0 0.68 0 0 Z " transform="translate(171,109)" style="fill: #D131C6;"/><path d="M0 0 C-0.33 0.66 -0.66 1.32 -1 2 C-3.06640625 2.6328125 -3.06640625 2.6328125 -5.5625 3.125 C-6.80193359 3.37636719 -6.80193359 3.37636719 -8.06640625 3.6328125 C-8.70449219 3.75398438 -9.34257813 3.87515625 -10 4 C-10 3.34 -10 2.68 -10 2 C-6.49223216 0.39644899 -3.85645121 -0.22036864 0 0 Z " transform="translate(90,90)" style="fill: #EB3BAC;"/><path d="M0 0 C0.33 0 0.66 0 1 0 C1 2.64 1 5.28 1 8 C0.01 8.33 -0.98 8.66 -2 9 C-1.125 2.25 -1.125 2.25 0 0 Z " transform="translate(90,66)" style="fill: #ED62D1;"/><path d="M0 0 C1.65 0 3.3 0 5 0 C6.35439668 2.70879335 6.06501451 5.00933268 6 8 C4 6 4 6 4 3 C2.68 2.34 1.36 1.68 0 1 C0 0.67 0 0.34 0 0 Z " transform="translate(66,130)" style="fill: #E136CB;"/><path d="M0 0 C2.78637633 4.1795645 1.79562512 6.14668677 1 11 C0.34 10.67 -0.32 10.34 -1 10 C-0.67 6.7 -0.34 3.4 0 0 Z " transform="translate(105,112)" style="fill: #FA34C1;"/><path d="M0 0 C1.98 0 3.96 0 6 0 C5.01 1.65 4.02 3.3 3 5 C2.67 4.34 2.34 3.68 2 3 C1.34 3 0.68 3 0 3 C0 2.01 0 1.02 0 0 Z " transform="translate(147,96)" style="fill: #FD3DBA;"/><path d="M0 0 C0.66 0.33 1.32 0.66 2 1 C-0.00979059 4.01468588 -0.70736015 4.83789182 -4 6 C-6.25 5.625 -6.25 5.625 -8 5 C-7.01 5 -6.02 5 -5 5 C-5 4.34 -5 3.68 -5 3 C-2.625 1.3125 -2.625 1.3125 0 0 Z " transform="translate(104,94)" style="fill: #FAC4E5;"/><path d="M0 0 C2.72426311 2.35277269 3.8141763 4.62496331 5 8 C3.68 8 2.36 8 1 8 C0.67 5.36 0.34 2.72 0 0 Z " transform="translate(129,51)" style="fill: #E46EC1;"/><path d="M0 0 C0.66 0.33 1.32 0.66 2 1 C2.1875 3.375 2.1875 3.375 2 6 C0.515 6.99 0.515 6.99 -1 8 C-0.67 5.36 -0.34 2.72 0 0 Z M-2 8 C-1 12 -1 12 -1 12 Z " transform="translate(84,172)" style="fill: #C509B4;"/><path d="M0 0 C1.65 0 3.3 0 5 0 C5.33 0.99 5.66 1.98 6 3 C5.01 3 4.02 3 3 3 C2.67 3.66 2.34 4.32 2 5 C2 4.34 2 3.68 2 3 C1.34 3 0.68 3 0 3 C0 2.01 0 1.02 0 0 Z " transform="translate(42,104)" style="fill: #ED2FBA;"/><path d="M0 0 C0.66 0 1.32 0 2 0 C1.38461538 6.52307692 1.38461538 6.52307692 -0.5625 8.9375 C-1.036875 9.288125 -1.51125 9.63875 -2 10 C-2.22036864 6.14354879 -1.60355101 3.50776784 0 0 Z " transform="translate(174,104)" style="fill: #D045C2;"/><path d="M0 0 C0.99 0.33 1.98 0.66 3 1 C3 2.98 3 4.96 3 7 C2.01 6.67 1.02 6.34 0 6 C0 4.02 0 2.04 0 0 Z " transform="translate(142,98)" style="fill: #F6F2F5;"/><path d="M0 0 C3.08089673 2.77280706 4.68775452 5.06326356 6 9 C5.01 8.34 4.02 7.68 3 7 C3 6.34 3 5.68 3 5 C2.01 5 1.02 5 0 5 C0 3.35 0 1.7 0 0 Z " transform="translate(134,59)" style="fill: #E37FC6;"/><path d="M0 0 C1.37432457 3.81756824 0.67975039 7.07255329 0 11 C-0.33 10.01 -0.66 9.02 -1 8 C-1.66 8 -2.32 8 -3 8 C-2.690625 7.236875 -2.38125 6.47375 -2.0625 5.6875 C-1.32106407 3.81210323 -0.63771783 1.91315348 0 0 Z " transform="translate(110,48)" style="fill: #E655B6;"/><path d="M0 0 C0.99 0.33 1.98 0.66 3 1 C2.34 2.98 1.68 4.96 1 7 C0.34 6.67 -0.32 6.34 -1 6 C-0.67 4.02 -0.34 2.04 0 0 Z " transform="translate(109,37)" style="fill: #CF1FA1;"/><path d="M0 0 C5.94 0.99 5.94 0.99 12 2 C12 2.33 12 2.66 12 3 C8.37 3 4.74 3 1 3 C0.67 2.01 0.34 1.02 0 0 Z " transform="translate(152,172)" style="fill: #CE4CBD;"/></svg>